<svg xmlns="http://www.w3.org/2000/svg" width="239" height="155"><path fill="#ba7694" d="M120.129 3.875c17.16-.51 33.67 4.35 46.39 16.07 6.19 5.97 10.58 12.5 14.74 20 1.74 3.06 1.74 3.06 3.74 5.05.26-.37.26-.37 1.56-2.24 4.6-5.19 9.95-7.47 16.8-8.03 7.98-.21 14.23-.02 20.64 5.27 8.15 8.15 11 17.98 11.31 29.26-.2 10.33-1.77 21.12-9.31 28.74-9.02 6.94-19.53 10.64-30.94 9.82-3.86-.51-7.43-1.34-11.06-2.82-.12.6-.12.6-.75 3.63-1.02 4.08-2.67 7.02-5.25 10.37-.45.62-.91 1.24-1.37 1.88-2.56 1.77-4.59 1.43-7.63 1.12-.79-.39-1.57-.78-2.38-1.19-2.62-.81-2.62-.81-5.12.24-.82.56-1.65 1.13-2.5 1.71-4.76 3.18-4.76 3.18-7.77 3.99-.73.41-1.47.83-2.23 1.25-.5 2.65-.7 4.73-.69 7.38-.1 8.52-.1 8.52-2.31 11.62-4.88 2.5-9.77 2.3-15 1-3.7-3.7-2.71-10.01-3-15h-18c.04 2.11.08 4.21.13 6.38.07 3.59.07 3.59-.13 6.62-3.1 3.11-6.73 2.93-11 3-3.4-.73-4.53-1.39-6.66-4.14-1.7-3.63-1.34-6.01-.96-9.98.09-3.75.09-3.75-.38-6.88-2.18-1.76-3.86-2.07-6.6-2.56-3.51-.64-5.55-2.35-8.4-4.44-.66-.32-1.32-.65-2-1l-3 2c-4.1.64-5.66.22-9.19-2.06-3.81-3.53-5.66-7.68-6-12.87.07-.68.13-1.36.19-2.07-.81.33-1.62.65-2.45.99-4.22 1.21-7.94 1.36-12.3 1.33-.8-.01-1.6-.01-2.42-.02-11.13-.23-18.47-3.28-26.55-10.92-7.06-7.48-8.56-17.45-8.43-27.41.53-10.61 3-20.48 11.03-27.9 6.3-5.02 13.26-7.63 21.35-6.85 6.42 1.16 12.36 3.76 16.5 8.95.21.3.21.3 1.27 1.83.4-.66.8-1.33 1.22-2.01 11.71-19 25.14-30.88 46.91-36.73 6-1.39 11.87-2.02 18-2.38"/><path fill="#f8edef" d="M158 33c9.74 9.03 12.87 21.43 13.41 34.32.06 1.75.12 3.49.17 5.24.24 6.16 1.23 11.77 2.77 17.76 1.83 7.56.45 13.94-3.35 20.68-9.43 12.25-23.45 16.56-37.97 19.63-6.96.85-14.03.51-21.03.37-1.02-.02-2.04-.03-3.09-.05-11.06-.58-21.27-4.51-30.53-10.39-.57-.36-1.14-.72-1.72-1.09-5.35-3.59-9.89-8.14-11.66-14.47-.43-2.99-.75-5.99-1-9-.22 5.79.44 10.92 1.66 16.58C66 115 66 115 65 118h-3c-4.27-6.35-5.32-12.45-4-20 3.87-8.94 3.87-8.94 8-11 .96-4.68 1.12-9.3 1.24-14.07C67.67 57.92 70.89 44.55 81 33c20.48-15.8 56.66-16.59 77 0"/><path fill="#f098c1" d="M162 16c8.23 6.99 14.03 14.52 19.26 23.95C183 43 183 43 185 45c.26-.37.26-.37 1.56-2.25 4.6-5.19 9.95-7.47 16.8-8.02 7.98-.21 14.23-.02 20.64 5.27 8.3 8.3 11.07 18.21 11.19 29.69-.07 11.19-.07 11.19-3.19 14.31a76 76 0 0 0-1.81 3.75c-3.76 7.57-8.47 11.97-16.19 15.25-10.76 3.54-19.31 4.02-30 0-1.89-1.89-1.81-4.72-2.33-7.25-.71-2.92-1.66-5.67-2.65-8.51-2.5-8.05-3.04-16-3.58-24.36-.64-9.58-1.37-18.7-4.44-27.88l-2 1c.02 2.29.02 2.29.38 5.06.11.92.22 1.84.33 2.79.1.71.19 1.42.29 2.15-3.75-1.25-3.94-2.28-5.75-5.69-5.41-9.3-13.32-14.29-23.59-17.29-16.78-3.83-33.15-2.99-49.21 3.15-2.96 1-5.35 1.29-8.45.83-3-2-3-2-3.88-3.81-.18-3.22 1-4.61 2.88-7.19 2.74-1.73 2.74-1.73 5.88-3.19 1.02-.49 2.05-.97 3.11-1.48 1.89-.83 3.79-1.63 5.71-2.38C99 8 99 8 102 6c2.56-.47 5.05-.84 7.62-1.12.73-.09 1.45-.17 2.2-.26 17.66-1.94 35.6.55 50.18 11.38"/><path fill="#f199c3" d="M44 38.438c4.72 4.03 7.57 8.25 8.38 14.5.12 6.22-.56 12.12-2.38 18.06-.19.65-.39 1.3-.59 1.97-1.72 4.79-3.88 6.85-8.41 9.03-3.64.88-7.29 1.5-11 2 8.02-.37 14.09-1.96 19.75-7.87 2.16-3 4.23-6.03 6.25-9.13l1-1c.21-1.41.37-2.83.5-4.25.33-3.31.83-6.49 1.5-9.75.15-1.41.29-2.83.44-4.25.09-.62.09-.62.56-3.75l2-1v2h2c-.04 4.71-.12 9.42-.21 14.13-.03 1.6-.05 3.19-.06 4.79-.13 13.45-1.21 27.47-8.73 39.08-7.45 4.33-20.14 3.02-28.29 1.32-8.26-3.08-13.53-8.21-17.67-15.88-2.87-6.72-3.48-13.1-3.79-20.31-.03-.48-.03-.48-.17-2.92-.04-.91-.08-1.82-.13-2.76l-.12-2.52c.03-.32.03-.32.17-1.93l2-1c.78-1.52 1.5-3.06 2.19-4.62 3.02-6.25 7.18-11.76 13.81-14.38 2.22-.16 2.22-.16 4.5-.06 6.07.24 10.72-2.27 16.5.5"/><path fill="#f59ec7" d="M162 16c8.23 6.99 14.03 14.52 19.26 23.95C183 43 183 43 185 45c.26-.37.26-.37 1.56-2.25 4.6-5.19 9.95-7.47 16.8-8.02 7.98-.21 14.23-.02 20.64 5.27 9.36 9.36 11.2 20.32 11.27 33.08-.26 2.85-.8 4.51-2.27 6.92-.02-.59-.02-.59-.11-3.59-.51-13.02-1.39-25.29-11.39-34.79-5.03-3.26-9.44-4.01-15.38-4h-2.15c-5.48.11-8.73.99-12.97 4.38l2-1c2-.36 4-.69 6-1v-2c1.79-.03 3.58-.05 5.38-.06.49-.01.49-.01 3.02-.04 2.6.1 2.6.1 4.6 1.1.56 2.81.56 2.81 0 6-1.6 1.14-1.6 1.14-3.56 2.12-1.14.62-2.27 1.24-3.44 1.88-.31 2.19-.31 2.19 1 4 3.06.75 3.06.75 6 1v2c.93.25 1.86.49 2.81.75C218 58 218 58 219.88 60.38c2.02 6.52 2.32 12.95-.5 19.24-3.86 3.86-7.53 4.47-12.82 4.69-4.39-.1-7.64-1.27-11.56-3.31-.87-.39-1.73-.78-2.62-1.19-5.09-3.88-7.75-9.74-9.38-15.81-.1-2-.2-4.01-.22-6.01-.11-8.76-1.58-14.75-6.78-21.99-.37-.53-.74-1.06-1.12-1.61-9.62-13.78-20.88-22.05-37.46-25.83C125.31 6.57 113.18 6.83 101 8l1-2c2.52-.49 4.95-.85 7.5-1.12.73-.09 1.47-.17 2.22-.26C129.43 2.7 147.38 5.14 162 16"/><path fill="#523643" d="M168 33c.16.33.16.33 1 2h2c4.78 8.51 4.92 18.38 5.5 27.88.59 9.57 1.39 18.24 4.62 27.38.86 2.66 1.25 5.08 1.5 7.86.44 2.13.44 2.13 1.38 3.88 7.35 4.33 15.95 3.58 23.94 1.81 8.46-2.3 14.79-5.33 19.85-12.67 1.85-3.26 3.01-6.6 4.21-10.14h1c-.26 7.03-2.14 11.83-7 17-8.98 6.95-19.56 10.63-30.94 9.81-3.86-.51-7.43-1.34-11.06-2.81-.12.6-.12.6-.75 3.62-1.02 4.09-2.67 7.02-5.25 10.38-.45.62-.91 1.24-1.38 1.88-2.55 1.77-4.59 1.42-7.62 1.12-.79-.39-1.57-.79-2.38-1.19-2.62-.81-2.62-.81-5.12.24-.82.56-1.65 1.12-2.5 1.7-4.77 3.19-4.77 3.19-7.77 3.99-.74.42-1.47.83-2.23 1.26-.5 2.64-.7 4.73-.69 7.38-.1 8.51-.1 8.51-2.31 11.62-4.88 2.5-9.77 2.3-15 1-3.7-3.7-2.71-10.02-3-15h-18l.12 6.38c.08 3.58.08 3.58-.12 6.62-3.11 3.11-6.74 2.93-11 3-3.4-.74-4.53-1.39-6.65-4.14-1.71-3.63-1.42-6.07-1.1-10.05.11-3.74.11-3.74-.25-6.81-3.44-1.75-3.44-1.75-7-2l-1-2c3.85.68 7.42 1.76 11.12 3 6.07 1.87 11.56 2.81 17.88 3 .66.03 1.32.05 2 .08 10.4.37 19.92-.2 30-3.08.98-.28 1.95-.56 2.96-.84 10.15-3.3 19.95-9.45 25.07-19.1 2.92-6.9 2.37-12.73.53-19.81-1.45-5.8-1.83-11.25-2-17.19-.22-7.68-1.3-14.1-3.82-21.41C166 46 166 46 167 43l3 3z"/><path fill="#f396c1" d="M61 43c.16.33.16.33 1 2h2c-.04 4.71-.12 9.42-.21 14.13a381 381 0 0 0-.06 4.78C63.6 77.36 62.52 91.38 55 103c-7.45 4.33-20.14 3.02-28.29 1.31-5.12-1.9-10.27-4.97-13.71-9.31l1-2c-.19-1.13-.37-2.27-.56-3.44C13 86 13 86 15 83l2-2v2l4-2c-.5-.76-.99-1.53-1.5-2.31-2.47-6.07-2.49-12.05-.19-18.19 2.61-3.86 2.61-3.86 4.69-5.5 2.48-.29 2.48-.29 5.19-.19.9.03 1.8.06 2.73.08.34.02.34.02 2.08.11v1l-7 1h2l2 1v2l1 1c.39-.7.78-1.4 1.19-2.12.6-.62 1.19-1.24 1.81-1.88 2.69.12 2.69.12 5 2 1 4.78.66 8.76-1.62 13.06-2.91 2.37-4.63 3.02-8.38 2.94-1.88-1.62-1.88-1.62-3-4a93 93 0 0 1 0-5l-2-1h2c-1-2-1-2-3-3l-2-2c-2.43 5.43-2.34 10.3-1 16 1.82 2.88 2.97 4.48 6 6v2c7.52.49 14.81-.89 20.81-5.69 3.04-2.85 5.17-6.07 7.24-9.67C56 67 56 67 57 66c.21-1.41.37-2.83.5-4.25.33-3.31.83-6.49 1.5-9.75.17-1.42.34-2.83.5-4.25C60 44 60 44 61 43"/><path fill="#f0e1e6" d="m78 37 3 2h-2c-.35 5.43-.35 5.43 0 8 1.88 1.12 1.88 1.12 4 2 1.25 3.12 1.25 3.12 2 6-2.98 1.52-5.82 2.94-9 4-.73 2.07-.73 2.07-1.19 4.56-.16.83-.31 1.66-.48 2.51-.05.32-.05.32-.33 1.93l2-5c1.14 3.41.71 4.55 0 8-.15 4.19.07 7.92 1 12v2c3.07 2.04 5.58 2.24 9.2 2.2.98-.01 1.96-.02 2.97-.02l3.08-.06c1.03 0 2.06-.01 3.13-.02 2.54-.03 5.08-.06 7.62-.1l-1 3c-2.93.22-5.64.28-8.56.19-.81-.02-1.62-.03-2.45-.04C89 90.11 87 90.06 85 90c.82.74 1.63 1.48 2.48 2.24C90 95 90 95 90.52 97.17c-.41 5.61-.41 5.61-1.52 7.83-5.1 1.33-10.32 1.63-15-1-1.38-3.12-1.38-3.12-2-6-3.09 2.06-3.48 2.86-5 6-.33.16-.33.16-2 1l-1-9c-.22 5.79.44 10.92 1.66 16.58C66 115 66 115 65 118h-3c-4.27-6.35-5.32-12.45-4-20 3.87-8.94 3.87-8.94 8-11 .96-4.68 1.12-9.3 1.24-14.07C67.58 60.91 68.94 46.06 78 37"/><path fill="#231214" d="M95.219 55.652c5.04 2.26 8.82 5.68 11.78 10.35.66 2.22.66 2.22 1 4h-1l-.37 2.7c-.16 1.17-.33 2.34-.5 3.55-.17 1.16-.33 2.32-.5 3.51-.55 2.85-1.01 4.86-2.63 7.24-4.12 1.37-7.99 1.26-12.31 1.31-.42.01-.42.01-2.55.09-5.61.06-8.96-.51-13.14-4.4l1-3-1-3c-.04-2.34-.04-4.67 0-7v-3l-2 3c.12-4.83.26-8.06 3.31-11.94 5.89-4.52 11.69-5.53 18.91-3.41"/><path fill="#4e4147" d="M83 124c3.85.68 7.42 1.76 11.12 3 6.07 1.87 11.56 2.81 17.88 3 .66.03 1.32.05 2 .08 9.45.34 17.98-.07 27.18-2.42C144 127 144 127 148 127c.05 2.58.09 5.17.12 7.75l.06 2.21c.06 7 .06 7-2.18 10.04-4.88 2.5-9.77 2.3-15 1-3.7-3.7-2.71-10.02-3-15h-18l.12 6.38c.08 3.58.08 3.58-.12 6.62-3.11 3.11-6.74 2.93-11 3-3.4-.74-4.53-1.39-6.65-4.14-1.71-3.63-1.42-6.07-1.1-10.05.11-3.74.11-3.74-.25-6.81-3.44-1.75-3.44-1.75-7-2z"/><path fill="#210f10" d="M159.375 56.688c3.37 1.92 5.24 3.59 6.62 7.31.19 3.81.19 3.81 0 7h-1c-.32 2.31-.65 4.62-1 7-.65-.33-1.31-.66-2-1v-2h-2c.02-.6.03-1.2.04-1.83l.03-2.42.03-2.39c-.09-2.34-.18-4.19-1.1-6.36-4.4-.58-6.75-.8-10.5 1.63-1.94 3.07-2.02 4.79-1.5 8.37.94 2.31.94 2.31 3 4 2.27.44 4.45.63 6.75.73 2.52.31 4.15.85 6.25 2.27v3l2 1c-5.94 4.98-10.03 5.21-17.5 5.25l-2.62.06c-.84.01-1.67.02-2.53.02-.38.01-.38.01-2.31.03-2.61-.46-3.44-1.27-5.04-3.36-1.89-5.79-2.21-10.94-2-17v-3c5.87-9.44 16.21-12.9 26.38-8.31"/><path fill="#5e3d4c" d="M162 16c8.23 6.99 14.03 14.52 19.26 23.95C183 43 183 43 185 45c.26-.37.26-.37 1.56-2.25 4.6-5.19 9.95-7.47 16.8-8.02 7.98-.21 14.23-.02 20.64 5.27 9.36 9.36 11.2 20.32 11.27 33.08-.26 2.85-.8 4.51-2.27 6.92-.02-.59-.02-.59-.11-3.59-.51-13.02-1.39-25.29-11.39-34.79-7.29-4.74-15.12-4.31-23.5-3.62-3.75 1.07-6.17 2.52-8.14 6.03-1.24 4.29-1.23 8.4-1.24 12.85-.01.43-.01.43-.07 2.64-.03 6.08 1.11 9.42 4.45 14.48v2h2v2c1.98.72 3.99 1.38 6 2 .62.39 1.24.78 1.88 1.19 3.44 1.31 6.68.89 10.12-.19 3.13-2.59 5.73-4.79 6.24-8.95.18-5.56-.5-8.65-4.24-13.05-2.52-1.26-4.31-1.1-7.12-1.06-.92.01-1.83.02-2.76.02-.7.02-1.4.03-2.12.04 2.65-2.95 2.65-2.95 5.81-3.38 3.77.45 6.03 1.27 9.19 3.38 4.04 5.25 3.77 11.67 3 18-1.76 3.93-2.88 5.43-6.69 7.38-7.26 1.37-12.62 1.1-19.31-2.38-.87-.39-1.73-.78-2.62-1.19-5.09-3.88-7.75-9.74-9.38-15.81-.1-2-.2-4.01-.22-6.01-.11-8.76-1.58-14.75-6.78-21.99-.37-.53-.74-1.06-1.12-1.61-9.62-13.78-20.88-22.05-37.46-25.83C125.31 6.57 113.18 6.83 101 8l1-2c2.52-.49 4.95-.85 7.5-1.12.73-.09 1.47-.17 2.22-.26C129.43 2.7 147.38 5.14 162 16"/><path fill="#e5d3d4" d="M162 113c3.06-.12 3.06-.12 6 0-8.22 11.51-21.77 14.84-34.97 17.63-6.96.85-14.03.51-21.03.37-1.02-.02-2.04-.03-3.09-.05-13.52-.71-24.93-6.49-35.91-13.95 1.88-1.12 1.88-1.12 4-2 2 2 2 2 3 4 2.03.28 4.06.54 6.1.71 3.34.33 6.64.85 9.96 1.35 13.79 1.85 30.82 2.63 44.44-1.12 4.05-1.09 7.33-1.09 11.5-.94v-2c1.93-.56 1.93-.56 4.44-1 2.49-.44 2.49-.44 4.56-1z"/><path fill="#b86c8a" d="M69 36c1.17 4.1 1.07 7.75 1 12l2-4c1.25 3.76.5 4.78-.88 8.44-2.23 6.82-2.6 13.21-2.83 20.36-.2 5.94-.66 11.45-2.29 17.2h-2c-4.01 4.14-5.37 8.44-5.5 14.12.19 4.65.98 7.89 3.5 11.88v2h3c-.14-1.77-.29-3.54-.44-5.31-.08-.99-.16-1.97-.24-2.99C64 107 64 107 63 104c-.14-4.48-.22-8.65 1-13h1c.03.92.05 1.84.08 2.78.65 14.04.65 14.04 4.92 19.22 2.84 2.58 5.86 4.8 9 7 1.67 1.33 3.34 2.66 5 4-.33.16-.33.16-2 1-2.04-1.27-4.04-2.61-6-4l-2-1-3 2c-4.1.64-5.66.22-9.19-2.06-3.81-3.54-5.67-7.68-6-12.88.06-.68.13-1.36.19-2.06-.81.32-1.62.65-2.45.98-4.22 1.21-7.94 1.36-12.3 1.33-.8 0-1.6-.01-2.42-.01-11.13-.23-18.47-3.29-26.55-10.93-6.39-6.76-8.4-15.82-8.47-24.93-.01-.93-.03-1.86-.04-2.82.24-2.69.86-4.31 2.23-6.62.04 1.11.07 2.22.11 3.37C6.63 78.12 7.56 88.48 17 98c7.07 5.41 14.47 6.33 23.06 6.25.89.01 1.77.02 2.68.02 8.89-.02 8.89-.02 12.26-2.27 1.51-2.72 1.51-2.72 2.69-6.06.39-1.09.79-2.17 1.2-3.29 2.52-8.29 3.42-15.92 3.61-24.59.21-9.61.79-18.74 4.62-27.68.36-.84.71-1.68 1.08-2.54.26-.61.53-1.22.8-1.84"/><path fill="#f19ac5" d="M213 57c3.58 2.18 5.4 4.17 7 8 .72 4.63.41 8.14-1.62 12.38-2.72 3-4.52 4.36-8.38 5.62-2.78-.06-5.25-.48-8-1l1-4-3-1c.21-.74.41-1.48.62-2.25.44-3.2-.18-3.96-1.62-6.75-.35-3.41-.39-5.31 1.31-8.31 3.41-3.41 8.13-3.34 12.69-2.69"/><path fill="#6a4456" d="M100 9c-.75.29-1.5.58-2.27.88C80.41 16.82 66.41 27 58 44c-.93 3.42-1.17 6.47-1 10 .31 8.56-1.51 16.25-7 23-4.65 4.76-9.43 6.87-16 8-2.52-.05-4.54-.41-7-1v-1c.7-.03 1.4-.05 2.12-.08C41.36 82.19 41.36 82.19 46 78c2.87-4.87 4.55-10.38 5-16 .07-.9.15-1.79.23-2.71.35-7.35-.63-12.45-5.23-18.29-2.19-2.12-2.19-2.12-5-3-2.52.07-4.94.33-7.44.69-2.36.29-4.45.27-6.81.12-5.86.3-8.99 3.21-12.87 7.31-3.01 3.63-4.56 7.53-6.12 11.94-.25.64-.5 1.28-.76 1.94H6c.28-7.79 3.15-12.92 8.48-18.57C19.97 36.52 26.66 34.01 34 34c6.47.62 11.96 2.87 17 7a73 73 0 0 1 3 4c.4-.67.8-1.33 1.21-2.02C62.18 31.69 82.9 2.7 100 9"/><path fill="#b6638b" d="M29.188 54.813c.9.03 1.8.05 2.73.08.34.02.34.02 2.08.11v1l-7 1h2l2 1v2l1 1c.39-.7.79-1.41 1.19-2.13.6-.62 1.2-1.23 1.81-1.87 2.69.12 2.69.12 5 2 1 4.78.66 8.75-1.62 13.06-2.91 2.37-4.63 3.02-8.38 2.94-1.87-1.63-1.87-1.63-3-4-.04-1.67-.04-3.34 0-5l-2-1h2c-1-2-1-2-3-3l-2-2c-2.43 5.43-2.34 10.3-1 16 1.94 3 1.94 3 4 5l2 2c-2.25-.07-2.25-.07-5-1-3.99-4.97-4.57-9.11-4.33-15.41.91-7.16 4.17-12.07 11.52-11.78"/><path fill="#ba6e90" d="M189 43c0 2.55-.06 5.09-.14 7.64-.04 1.87-.07 3.74-.11 5.61-.03.93-.07 1.86-.1 2.82-.09 6.29.84 9.71 4.35 14.93v2h2v2c1.98.72 3.99 1.38 6 2 .31.2.31.2 1.88 1.19 3.44 1.31 6.68.89 10.12-.19 3.13-2.59 5.73-4.79 6.24-8.95.18-5.56-.5-8.65-4.24-13.05-2.52-1.26-4.31-1.1-7.12-1.06-.92.01-1.83.02-2.76.02-.35.01-.35.01-2.12.04 2.65-2.95 2.65-2.95 5.81-3.38 3.77.45 6.03 1.27 9.19 3.38 4.04 5.25 3.77 11.67 3 18-1.76 3.93-2.88 5.43-6.69 7.38-7.26 1.37-12.62 1.1-19.31-2.38-.87-.39-1.73-.78-2.62-1.19-4.85-3.69-7.99-9.52-9.23-15.47-.5-7.72.76-15.4 5.85-21.34"/><path fill="#e7cddf" d="M93 129c5.55.48 10.75 1.06 16 3 1.68 3.5.98 6.34 0 10-.07.75-.13 1.51-.2 2.29L108 146c-2.62.53-2.62.53-5.88.5-.53.01-.53.01-3.24.03C96 146 96 146 94.13 144.39c-1.5-3.18-1.42-5.64-1.32-9.14.03-1.17.06-2.34.08-3.55.04-.89.07-1.78.11-2.7"/><path fill="#e8cedf" d="M146 129c.05 2.08.09 4.17.12 6.25.03 1.16.05 2.32.08 3.52-.31 5.03-.31 5.03-2.2 7.23-2.79.43-2.79.43-6.06.31-1.09-.02-2.17-.05-3.29-.07C132 146 132 146 131 145c-.76-4.48-1.09-8.57 0-13 4.57-3.02 9.67-3 15-3"/><path fill="#f2cbcf" d="M144 88c1.92-.08 3.83-.14 5.75-.19.53-.01.53-.01 3.23-.1 3.33.32 4.68.94 7.02 3.29v2h4c.2 1.44.38 2.87.56 4.31.11.8.21 1.6.32 2.43C165 102 165 102 164 105c-2.44 1.22-4.21 1.24-6.94 1.31l-2.65.12c-2.41-.43-2.41-.43-4.23-2.2-1.87-3.54-1.24-6.47-.18-10.23 1.44-2 1.44-2 3-3h2v-2h-11z"/><path fill="#b66d8b" d="m168 33 1 2h2c4.78 8.51 4.92 18.38 5.5 27.88.65 10.64 1.95 19.96 5.5 30.12.35 1.33.69 2.66 1 4-5.75-5.33-9.71-10.35-10.21-18.3-.03-1.28-.07-2.56-.11-3.87l-.06-2.07-.18-6.51c-.05-1.48-.09-2.95-.13-4.43-.11-3.6-.21-7.21-.31-10.82l-2 2c-.06-.41-.06-.41-.38-2.5-.2-.83-.41-1.65-.62-2.5h-2c-.62-2.5-.62-2.5-1-5l4 3z"/><path fill="#dfc7d4" d="M175 90c5.21 4.8 7.09 8.61 7.81 15.62.11.95.22 1.89.33 2.86-.14 2.52-.14 2.52-1.49 4.16-.54.45-1.09.9-1.65 1.36-.74 1.05-1.49 2.1-2.25 3.19-2.75 2.81-2.75 2.81-6.5 3.43-3.25-.62-3.25-.62-4.5-2.31.38-3.53 2.75-4.87 5.25-7.31 4.06-6.58 3.28-13.46 3-21"/><path fill="#f7f4f4" d="M99 61c1.88 1.06 1.88 1.06 3 3 .98 3.77 1.28 6.15.06 9.88-2.61 2.68-4.44 3.09-8.12 3.31C92 77 92 77 89.5 75.56 87.41 71.99 87.2 69.04 88 65c2.84-4.55 5.89-4.65 11-4"/><path fill="#f7cdd5" d="M86 92c2.5 1 2.5 1 4 3 .49 3.47.6 6.8-1 10-4.19 1.09-8.29 1.09-12.56.56-.81-.51-1.61-1.03-2.44-1.56-.54-2.83-.28-5.08 0-8h2v-3c3.2-1.6 6.52-1.36 10-1"/><path fill="#221b1d" d="M159.375 56.688c3.37 1.92 5.24 3.59 6.62 7.31.19 3.81.19 3.81 0 7h-1c-.32 2.31-.65 4.62-1 7-.65-.33-1.31-.66-2-1v-2h-2c.02-.6.03-1.2.04-1.83l.03-2.42.03-2.39c-.09-2.34-.18-4.19-1.1-6.36-5.38-.63-8.54-.34-13 3-.33-.66-.65-1.32-1-2h-2c-.18-3.43-.18-3.43 0-7 5.6-1.86 10.98-1.79 16.38.69"/><path fill="#dbb1be" d="m153 45 1 7h2l.94-2c.17-.33.17-.33 1.06-2h3c-.1.57-.1.57-.62 3.44-.13 1.17-.25 2.35-.38 3.56l2 1v2l-2.94-1c-5.6-1.59-10.93-1.75-16.44.19-.86.27-1.73.53-2.62.81-1.88-1.06-1.88-1.06-3-3-.19-2.69-.19-2.69 0-5h2l1-3h4v2h2v-3c3-1 3-1 7-1"/><path fill="#ce7aa3" d="M202 58v7l1-3 2 1c.25 2.5.25 2.5 0 5-.33.16-.33.16-2 1v2c2.38.19 2.38.19 5 0 2-3 2-3 2-5l-2-1h3c1.35 6.4 1.35 6.4-.44 9.44L209 76l2 2 2-1v-2c1.32-.7 2.65-1.37 4-2l2-2 1 3c-2.49 4.79-4.84 7.31-10 9-2.78-.06-5.25-.48-8-1l1-4-3-1c.21-.74.41-1.48.62-2.25.44-3.2-.18-3.96-1.62-6.75-.37-3.54-.42-5.33 1.5-8.38.5-.53.99-1.07 1.5-1.62"/><path fill="#7a6b73" d="M64 91h1c.01.46.01.46.08 2.78.65 14.04.65 14.04 4.92 19.22 2.84 2.58 5.86 4.8 9 7 1.67 1.33 3.34 2.66 5 4-.33.16-.33.16-2 1-2.04-1.27-4.04-2.61-6-4l-2-1-3 2c-4.1.64-5.66.22-9.19-2.06-4.63-4.29-6.06-9.83-6.81-15.94h2l1-3c.12.81.24 1.62.37 2.45.08.53.08.53.51 3.24.16 1.05.32 2.11.49 3.2.6 2.95 1.22 5.45 2.63 8.11h3c-.14-1.77-.29-3.54-.44-5.31-.08-.99-.16-1.97-.24-2.99C64 107 64 107 63 104c-.14-4.48-.22-8.65 1-13"/><path fill="#603e4f" d="M5 62h1c.04 1.11.07 2.22.11 3.37C6.63 78.12 7.56 88.48 17 98c7.07 5.41 14.47 6.33 23.06 6.25.89.01 1.77.02 2.68.02 8.71-.02 8.71-.02 12.26-2.27 1.44-2.24 1.44-2.24 2.56-4.88 1.71-3.73 3.2-6.48 6.44-9.12-1.45 3.86-3.21 7.48-5.1 11.13C58 101 58 101 57 104c-5.32 2.94-9.8 3.49-15.81 3.38-.8-.02-1.59-.03-2.41-.04-11.09-.29-18.45-3.35-26.5-10.97-6.39-6.76-8.43-15.81-8.4-24.93-.01-.93-.01-1.86-.01-2.82.12-2.37.38-4.37 1.13-6.62"/><path fill="#a55d65" d="m105 67 3 1-1 2c-.52 3.3-.96 6.62-1.4 9.93C105 83 105 83 103 86c-2.79.22-5.35.28-8.12.19-.38-.01-.38-.01-2.29-.04-1.86-.04-3.73-.09-5.59-.15v-2c-.97.19-1.94.37-2.94.56-1.01.15-2.02.29-3.06.44-1-1-1-1-1.06-4.06L80 78c2.31-.31 2.31-.31 5 0 .43.83.87 1.65 1.31 2.5C88 83 88 83 89.89 83.51c2.17.11 2.17.11 6.11-.51 1.56-2.38 1.56-2.38 2-5l-1-2h3l1-2 4 2z"/><path fill="#a25777" d="M47 42c3.77 1.21 5.4 3.52 7.21 6.95 1.4 3.63 1.43 7.14 1.35 10.99 0 .4 0 .4-.03 2.41C55.32 68.36 54.37 72.64 50 77c-.89.93-1.77 1.86-2.69 2.81-5.27 3.49-11.04 5.77-17.43 4.88-.48-.12-.48-.12-2.88-.69v-1c.7-.03 1.4-.05 2.12-.08C41.36 82.19 41.36 82.19 46 78c4.96-8.41 5.96-18.43 5-28-1.05-3-2.32-5.28-4-8"/><path fill="#e7cedd" d="M64 88c1.05 1.89 1.05 1.89 2 4-.67 1.33-1.33 2.67-2 4-.41 5.78.44 10.93 1.66 16.58C66 115 66 115 65 118h-3c-4.27-6.34-5.33-12.45-4-20 1.64-3.63 3.63-6.81 6-10"/><path fill="#a9585a" d="M157 77c2.19-.19 2.19-.19 4 1 .81 2.88.81 2.88 0 6-5.47 3.41-11.78 3.3-18 3v-2c-.8.1-1.61.21-2.44.31L138 85c-.88-2.38-.88-2.38-1-5l1-2c2.44-.44 2.44-.44 5 0 .25.85.5 1.69.75 2.56.41.81.82 1.61 1.25 2.44 3.18.45 5.97.05 9-1 1.81-2.62 1.81-2.62 3-5"/><path fill="#75254b" d="M208.813 54.625c3.77.44 6.02 1.27 9.19 3.38 4.04 5.25 3.77 11.66 3 18-1.76 3.92-2.88 5.42-6.69 7.37-7.27 1.37-12.62 1.1-19.31-2.37-.87-.4-1.73-.79-2.63-1.19-4.49-3.43-7.37-8.2-8.18-13.81-.07-.99-.13-1.99-.19-3 1.56 2.34 2.62 4.33 3.75 6.87 2.83 5.65 6.75 8.75 12.62 11 4.67 1.37 7.91 1.38 12.63.13 3.12-2.6 5.73-4.79 6.24-8.96.18-5.55-.51-8.65-4.24-13.04-2.53-1.27-4.31-1.1-7.13-1.07l-2.76.03c-.34.01-.34.01-2.11.04 2.65-2.96 2.65-2.96 5.81-3.38"/><path fill="#532a3a" d="M69 36c1.09 4.14 1.07 7.72 1 12l2-4c1.25 3.76.5 4.78-.88 8.44-2.23 6.82-2.61 13.21-2.82 20.36-.19 5.94-.85 11.41-2.3 17.2-1.06-1.94-1.06-1.94-2-4 .17-.16.17-.16 1-1 .12-2.25.18-4.5.21-6.75l.09-4.29c.04-2.23.07-4.47.1-6.71.14-10.72 1.3-20.78 3.6-31.25"/></svg>