<svg xmlns="http://www.w3.org/2000/svg" width="322" height="403"><path fill="#f7f7d9" d="M106.313 5.938c9.19 5.3 13.35 13.93 16.13 23.89 4.9 19.06 5.68 38.6 6.56 58.17l2-1c6.6-1.01 13.25-1.15 19.92-1.13h8.39c2.88.01 5.75 0 8.63 0h5.54c.42 0 .42 0 2.58-.01 4.75.02 9.25.35 13.94 1.14-.03-.91-.05-1.82-.07-2.76-.32-23.01.15-54.95 15.46-73.65 5-4.93 10.86-6.7 17.73-6.96 7.95.06 15.28 3.78 20.88 9.37 19.63 24.12 25.58 61.49 27.45 91.71.07 1.16.14 2.31.22 3.51.13 2.25.24 4.51.33 6.76.41 7.23 1.96 12.04 6 18.02 16.08 25.46 19.29 53.09 21.23 82.48 1.74 25.95 1.74 25.95 4.77 37.52.17.66.33 1.32.51 1.99 2.2 8.39 4.81 15.47 9.94 22.58 5.77 9.04 4.66 22.12 2.86 32.32-2.93 10.32-8.54 20.05-18.12 25.43-4.33 2-7.45 2.22-12.19 1.68-3.52-1.35-5.54-2.46-8-5.31-.66-.56-1.32-1.11-2-1.69-4.8 1.19-9.03 3.47-13.38 5.75-25.88 13.25-25.88 13.25-37.62 13.25 0 .35 0 .35.03 2.11.04 3.21.07 6.43.09 9.64.02 1.09.04 2.19.05 3.31.14 22.36.14 22.36-6.17 29.94-6.6 5.45-16 4.7-24.07 4.19-3.86-.37-7.69-.96-10.93-3.19-3.09-4.1-3.47-7.72-3.51-12.7-.02-.65-.04-1.29-.05-1.96-.06-2.38-.09-4.76-.13-7.15-.1-5.34-.21-10.68-.31-16.19h-38c-.38 13.5-.38 13.5-.48 17.71-.49 15.46-.49 15.46-3.88 20.19-7.9 5.31-19.11 5.33-28.14 3.63-3.88-1.23-7.06-3.18-9.48-6.5-5.25-10.42-4.17-22.29-3.38-33.53.12-3.37.2-6.24-.64-9.5-2.84-1.89-5.67-1.82-9-2-10.96-3.41-20.88-8.34-30.92-13.83-6.71-3.59-6.71-3.59-9.08-4.17-1.85 1.05-1.85 1.05-3.5 2.75-4.76 4.48-8.65 5.75-15.17 5.56-6.8-.89-11.44-4.7-15.66-9.91-8.97-12.9-10.75-25.15-8.67-40.4 1.14-5.07 3.29-9.1 6.35-13.27 7.19-9.88 9.99-18.65 11.65-30.73.18-1.24.37-2.48.56-3.76.55-4.51.62-9.03.73-13.58.63-26.41 1.58-57.6 15.18-81.22 4.44-7.88 5.57-14.97 6.03-23.82.21-3.87.5-7.73.79-11.59.06-.77.11-1.55.17-2.34.81-11 2.59-21.84 4.54-32.69.15-.86.3-1.72.45-2.6 3.9-21.82 10.2-49.12 28.79-63.08 8.04-5.2 17.14-6.37 26.07-2.38"/><path fill="#47a336" d="M106.313 5.938c9.19 5.3 13.35 13.93 16.13 23.89 4.9 19.06 5.68 38.6 6.56 58.17l2-1c6.6-1.01 13.25-1.15 19.92-1.13h8.39c2.88.01 5.75 0 8.63 0h5.54c.42 0 .42 0 2.58-.01 4.75.02 9.25.35 13.94 1.14-.03-.91-.05-1.82-.07-2.76-.32-23.01.15-54.95 15.46-73.65 5-4.93 10.86-6.7 17.73-6.96 7.95.06 15.28 3.78 20.88 9.37 19.63 24.12 25.58 61.49 27.45 91.71.07 1.16.14 2.31.22 3.51.13 2.25.24 4.51.33 6.76.41 7.23 1.96 12.04 6 18.02 16.08 25.46 19.29 53.09 21.23 82.48 1.74 25.95 1.74 25.95 4.77 37.52.17.66.33 1.32.51 1.99 2.2 8.39 4.81 15.47 9.94 22.58 5.77 9.04 4.66 22.12 2.86 32.32-2.93 10.32-8.54 20.05-18.12 25.43-4.33 2-7.45 2.22-12.19 1.68-3.52-1.35-5.54-2.46-8-5.31-.66-.56-1.32-1.11-2-1.69-4.8 1.19-9.03 3.47-13.38 5.75-25.88 13.25-25.88 13.25-37.62 13.25 0 .35 0 .35.03 2.11.04 3.21.07 6.43.09 9.64.02 1.09.04 2.19.05 3.31.14 22.36.14 22.36-6.17 29.94-6.6 5.45-16 4.7-24.07 4.19-3.86-.37-7.69-.96-10.93-3.19-3.09-4.1-3.47-7.72-3.51-12.7-.02-.65-.04-1.29-.05-1.96-.06-2.38-.09-4.76-.13-7.15-.1-5.34-.21-10.68-.31-16.19h-38c-.38 13.5-.38 13.5-.48 17.71-.49 15.46-.49 15.46-3.88 20.19-7.9 5.31-19.11 5.33-28.14 3.63-3.88-1.23-7.06-3.18-9.48-6.5-5.25-10.42-4.17-22.29-3.38-33.53.12-3.37.2-6.24-.64-9.5-2.84-1.89-5.67-1.82-9-2-10.96-3.41-20.88-8.34-30.92-13.83-6.71-3.59-6.71-3.59-9.08-4.17-1.85 1.05-1.85 1.05-3.5 2.75-4.76 4.48-8.65 5.75-15.17 5.56-6.8-.89-11.44-4.7-15.66-9.91-8.97-12.9-10.75-25.15-8.67-40.4 1.14-5.07 3.29-9.1 6.35-13.27 7.19-9.88 9.99-18.65 11.65-30.73.18-1.24.37-2.48.56-3.76.55-4.51.62-9.03.73-13.58.63-26.41 1.58-57.6 15.18-81.22 4.44-7.88 5.57-14.97 6.03-23.82.21-3.87.5-7.73.79-11.59.06-.77.11-1.55.17-2.34.81-11 2.59-21.84 4.54-32.69.15-.86.3-1.72.45-2.6 3.9-21.82 10.2-49.12 28.79-63.08 8.04-5.2 17.14-6.37 26.07-2.38m22.69 86.06c-.89.15-1.77.31-2.68.46-21.99 3.89-44.34 9.22-61.32 24.54-.68.54-1.36 1.08-2.07 1.64-13.28 10.71-23.17 27.9-27.18 44.37-.75 2.99-.75 2.99-1.67 5.08-6.08 16.38-5.82 34.89-6.21 52.1-.09 3.53-.18 7.06-.28 10.59-.07 2.17-.12 4.35-.16 6.52l-.09 2.94c-.01.85-.03 1.7-.05 2.58-.29 2.18-.29 2.18-2.29 5.18-.4 1.93-.73 3.87-1 5.82-.65 4.26-1.52 8.12-3 12.18-2.99 12.04-2.12 25.35 3.91 36.25 10 16.04 27.31 26.17 44.09 33.75 1.18.55 2.37 1.09 3.59 1.65 26.56 11.78 53.65 15.35 82.41 16.35 1.23.05 2.45.1 3.72.16 14.42.54 28.34-.23 42.59-2.41.67-.1 1.34-.2 2.04-.31 13.75-2.14 27.31-5.13 40.27-10.25.89-.34 1.77-.69 2.69-1.04 19.02-7.54 41.59-18.27 51.69-37.15.37-.68.75-1.35 1.13-2.05 1.03-1.97 1.99-3.91 2.87-5.95.25-.56.5-1.13.77-1.71 2.16-5.18 2.67-9.64 2.54-15.23-.01-.39-.01-.39-.03-2.4-.18-7.55-1.52-13.72-4.26-20.74-2-5.52-3.05-10.79-3.71-16.6-.06-.51-.06-.51-.38-3.08-.89-8.03-1.14-16.04-1.27-24.12-.4-23.19-4.39-45.15-14.66-66.12-.21-.44-.21-.44-1.27-2.71-6.6-13.24-17.29-22.63-29.73-30.29h-2v-2c-2.69-1.38-5.35-2.62-8.13-3.81l-2.47-1.08c-7.04-3.02-14.12-5.73-21.4-8.11-.42-.14-.42-.14-2.54-.86-7.5-2.32-15.25-3.17-23.02-4.14-.93-.11-1.86-.23-2.82-.35-.84-.1-1.68-.2-2.55-.31-2.07-.34-2.07-.34-4.07-1.34-2.68-.11-5.34-.16-8.02-.17-.81 0-1.61 0-2.44-.01h-5.16c-2.58 0-5.16-.02-7.74-.04-9.76-.04-19.02.48-28.64 2.22"/><path fill="#34382b" d="M52 88c1.65 3.3.52 6.87.06 10.44-.95 7.93-1.22 15.69-.99 23.68.05 1.96 0 3.92-.07 5.88-.33.16-.33.16-2 1-.16-1.32-.16-1.32-1-8-.17 2.25-.33 4.5-.5 6.75-.05.63-.05.63-.28 3.8-.16 2.48-.22 4.96-.22 7.45-1.01 2-2.11 3.95-3.25 5.88-3.32 5.93-5.25 11.41-6.93 18.03C36 166 36 166 35.08 168.09c-6.07 16.39-5.82 34.88-6.2 52.1-.09 3.53-.19 7.06-.29 10.59-.06 2.17-.12 4.34-.16 6.52-.03.97-.06 1.94-.08 2.94l-.06 2.57C28 245 28 245 26 248c-.4 1.92-.73 3.87-1 5.81-.65 4.27-1.51 8.13-3 12.19-3.02 12.13-2.07 25.3 3.96 36.3C35.55 317.94 52.75 327.66 69 335c1.19.54 2.37 1.09 3.59 1.65C99.15 348.43 126.24 352 155 353l3.72.15c14.43.55 28.35-.22 42.59-2.4.67-.1 1.35-.2 2.04-.31 13.75-2.14 27.31-5.13 40.27-10.25.89-.35 1.78-.69 2.69-1.05 18.74-7.41 40.68-17.69 50.69-36.14.38-.68.75-1.36 1.14-2.06 1.03-1.96 1.98-3.9 2.86-5.94.25-.57.51-1.13.77-1.71 2.16-5.18 2.67-9.65 2.54-15.23 0-.39 0-.39-.03-2.4-.18-7.56-1.52-13.72-4.25-20.75-2.01-5.51-3.05-10.78-3.72-16.6-.12-1.01-.25-2.03-.37-3.07-1.05-9.37-1.2-18.73-1.35-28.15-.25-13.69-2.45-26.77-5.59-40.09h2l-1-6c2.22 3.32 3.06 6.44 4 10.25.17.62.33 1.25.5 1.89 2.98 11.92 3.76 24.15 4.33 36.38 2.35 48.82 2.35 48.82 15.4 67.68 5.88 9.3 4.94 22.18 3.08 32.68-2.93 10.33-8.54 20.05-18.12 25.43-4.33 2.01-7.45 2.23-12.19 1.69-3.52-1.35-5.53-2.46-8-5.31-.66-.56-1.32-1.12-2-1.69-4.8 1.19-9.02 3.47-13.38 5.75C237.74 349 237.74 349 226 349a1552.248 1552.248 0 0 1 .12 11.75l.06 3.31c.13 22.36.13 22.36-6.18 29.94-6.6 5.45-15.99 4.7-24.06 4.18-3.87-.36-7.7-.95-10.94-3.18-3.09-4.1-3.47-7.72-3.51-12.71-.02-.64-.03-1.28-.05-1.95-.06-2.38-.09-4.77-.13-7.15-.1-5.34-.2-10.69-.31-16.19h-38c-.38 13.5-.38 13.5-.48 17.71-.49 15.45-.49 15.45-3.88 20.18-7.89 5.31-19.11 5.34-28.14 3.64-3.88-1.23-7.06-3.19-9.48-6.5-5.25-10.42-4.17-22.29-3.38-33.54.12-3.36.2-6.23-.64-9.49-2.83-1.9-5.67-1.82-9-2-10.95-3.41-20.87-8.35-30.92-13.83-6.71-3.59-6.71-3.59-9.08-4.17-1.84 1.05-1.84 1.05-3.5 2.75-4.76 4.48-8.65 5.75-15.17 5.55-6.8-.88-11.43-4.7-15.66-9.9C4.7 314.5 2.92 302.25 5 287c1.14-5.07 3.3-9.1 6.35-13.27 7.19-9.88 9.99-18.65 11.65-30.73.19-1.24.37-2.48.57-3.76.54-4.52.61-9.04.72-13.58.63-26.29 1.49-57.7 15.18-81.18 5.1-8.99 5.77-17.2 6.34-27.29.16-2.35.33-4.69.49-7.03.1-1.45.2-2.89.28-4.34.27-4.32.76-8.54 1.42-12.82h2v-4z"/><path fill="#082123" d="M258.813 175.813c1.41 1.04 2.81 2.1 4.19 3.19.35.25.35.25 2.11 1.55 5.77 4.55 8.8 9.86 11.89 16.45.34.63.68 1.27 1.03 1.92 4.85 10.18 2.34 24.86-1.03 35.08h-1c-.02-.7-.03-1.4-.05-2.12-.07-3.23-.17-6.46-.26-9.69-.03-1.11-.05-2.21-.07-3.34-.32-9.7-1.38-21.61-8.62-28.85.62 1.15 1.24 2.31 1.87 3.5 4.21 7.84 4.44 15.61 4.38 24.31 0 .51 0 .51.02 3.08-.02 8.89-.53 17.87-4.9 25.8-.44.82-.89 1.65-1.35 2.51-.34.59-.67 1.19-1.02 1.8l4-1c-.57 1.87-.57 1.87-2 4-8.2 3.11-16.88 3.16-25.53 3.17-.99 0-1.98 0-2.99.01h-6.24c-3.17 0-6.33.02-9.49.04-2.03.01-4.06.01-6.09.01-.94.01-1.87.01-2.83.02-5.6-.02-11.59-.06-16.83-2.25-.88-2.81-.88-2.81-1-6-.46-.72-.91-1.45-1.38-2.19-4.51-7.82-5.15-16.65-5.06-25.5 0-1.04.01-2.07.01-3.14.16-8.83 1.67-16.81 4.43-25.17-.46.99-.91 1.98-1.38 3-.53.99-1.07 1.98-1.62 3h-2c.92-8.02 5.38-14.94 11.31-20.38 16.14-12.52 40.22-13.77 57.5-2.81"/><path fill="#092224" d="M90.688 168.438c.53.01.53.01 3.22.03 12.45.34 21.9 3.89 31.09 12.53 2.88 3.11 4.82 5.91 6 10-.16.5-.16.5-1 3l-3-3c.48 1.01.95 2.02 1.44 3.06 7.49 15.96 2.85 40.33-2.79 56.17-.21.59-.43 1.17-.65 1.77-.16.5-.16.5-1 3-5.03 2.38-9.95 2.29-15.39 2.27h-2.75c-1.91.01-3.83 0-5.75-.01-2.87-.01-5.75 0-8.62.02-11.31 0-22.3-.65-33.49-2.28v-2c-2-.62-2-.62-4-1 .66-.16.66-.16 4-1-.21-.53-.21-.53-1.27-3.25-.56-1.44-1.11-2.87-1.66-4.31-.28-.7-.56-1.41-.85-2.13-2.88-7.54-3.4-14.74-3.41-22.75l-.03-2.44c-.02-5.4.75-9.93 2.22-15.12.35-1.66.69-3.33 1-5-.65 1.66-1.3 3.33-1.93 5l-1.09 2.82c-2.15 7.02-2.22 14.39-2.54 21.68-.04.92-.09 1.84-.13 2.78-.11 2.24-.21 4.48-.31 6.72-4.83-4.83-4.24-13.54-4.31-20 .09-13.08 4.68-23.21 13.62-32.81 4.08-3.82 8.78-6.56 13.69-9.19.56-.34 1.12-.69 1.69-1.04 5.9-3.41 11.28-3.62 18-3.52"/><path fill="#46a236" d="M241.688 10.688c14.38 14.38 20.05 36.42 24.12 55.75.21.98.42 1.96.63 2.98 1.31 6.51 2.09 12.96 2.56 19.58-1.37-2.66-2.37-5.06-3-8 .91 13.26.91 13.26 1.57 19.57.58 6.14.52 12.27.43 18.43-5.34-2.64-10.36-5.54-15.25-8.93-4.32-2.95-8.83-5-13.66-6.99-.69-.36-1.38-.71-2.09-1.08v-2c-.88-.06-1.77-.12-2.69-.19-3.66-.51-6.82-1.73-10.24-3.12-6.35-2.54-12.7-4.24-19.34-5.79-1.23-.3-2.46-.59-3.73-.9l-2.01-.36c-1.93-.41-1.93-.41-4.99-1.64-.72-2.4-.72-2.4-.5-5.5.07-1.15.13-2.3.19-3.49.05-.64.1-1.27.16-1.93.17-2.27.27-4.53.37-6.8.56-12.4.56-12.4 1.78-17.28.07-1.91.09-3.83.07-5.75l-.03-2.98c-.01-.75-.03-1.5-.04-2.27h-2c.4-11.14 4.68-25.17 13-33 11.7-8.64 23.32-5.45 34.69 1.69"/><path fill="#d1dcaa" d="m295 304 2 1c-8.08 11.47-18.74 19.35-31 26-.98.54-1.95 1.08-2.96 1.64-18.02 9.51-37.03 14.9-57.04 18.36-.9.16-1.8.33-2.73.5-40.33 7.18-87.2 3.69-125.27-11.5-.71-.28-1.43-.56-2.17-.85C60 332.84 46.65 324.41 34 313c3-1 3-1 6 0v2c.82.17 1.65.33 2.5.5.82.17 1.65.33 2.5.5v2c1.66.35 3.33.68 5 1 2.45.85 4.65 1.85 7 3v2c1.86.45 3.73.89 5.6 1.31 2.6.75 4.76 1.8 7.15 3.07 9.33 4.81 19.16 7.19 29.37 9.31 5.78 1.21 5.78 1.21 6.88 2.31 28.85 5.62 58.77 4.84 88 3v-2l13-1v-2c2.36-.74 4.65-1.33 7.06-1.88 1.48-.34 2.96-.69 4.43-1.05.76-.17 1.51-.35 2.29-.53 3.32-.81 6.61-1.7 9.91-2.6 4.77-1.29 9.54-2.45 14.37-3.5 4.43-.99 8.01-2.21 11.94-4.44h2v-2c3.17-1.51 6.38-2.76 9.66-4.01.44-.18.44-.18 2.72-1.05.85-.32 1.7-.64 2.58-.98C276 315 276 315 277 313c1.95-.76 3.9-1.51 5.87-2.21 3.79-1.4 7.19-3.06 10.38-5.54.58-.41 1.15-.82 1.75-1.25"/><path fill="#404235" d="M290 161c2.22 3.32 3.06 6.44 4 10.25.17.62.33 1.25.5 1.89 2.98 11.92 3.76 24.15 4.33 36.38 2.35 48.82 2.35 48.82 15.4 67.68 5.88 9.3 4.94 22.18 3.08 32.68-2.93 10.33-8.54 20.05-18.12 25.43-4.33 2.01-7.45 2.23-12.19 1.69-3.52-1.35-5.53-2.46-8-5.31-.66-.56-1.32-1.12-2-1.69-4.8 1.19-9.02 3.47-13.38 5.75-11.72 5.99-23.73 10.47-36.62 13.25v-2l-2-1c1.03-.28 2.06-.56 3.12-.85 13.42-3.74 26.82-8.09 38.61-15.69 1.82-1.17 3.71-2.26 5.6-3.31 13.24-7.52 22.56-17.19 28.67-31.15.26-.59.53-1.17.8-1.78 2.15-5.15 2.64-9.61 2.51-15.16l-.03-2.4c-.18-7.56-1.52-13.72-4.25-20.75-2.01-5.51-3.05-10.78-3.72-16.6-.12-1.01-.25-2.03-.37-3.07-1.05-9.37-1.2-18.73-1.35-28.15-.25-13.69-2.45-26.77-5.59-40.09h2c-.16-.99-.16-.99-1-6"/><path fill="#f4f8f7" d="M255.75 191.063c5.92 3.7 10.04 8.28 12.25 14.94 1.18 8.11-.6 14.18-5 21-3.63 4.75-8.81 7.44-14.65 8.46-7.41.43-11.77-1.75-17.35-6.46-.97-.81-1.94-1.61-2.94-2.44-4.56-5.67-4.74-12.57-4.06-19.56 1.3-6.57 4.8-10.91 10-15 7.02-4.11 14.47-4.65 21.75-.94"/><path fill="#2d3029" d="M195 40c2 2 2 2 2.23 4.46-.01.96-.03 1.92-.04 2.92-.01.47-.01.47-.02 2.89-.17 2.73-.17 2.73-.65 4.45-.72 3.14-.86 6.24-1.06 9.45-.04.68-.08 1.37-.13 2.07l-.39 6.51c-.09 1.48-.19 2.95-.28 4.43L194 88c.84.12 1.69.23 2.56.35 6.41.93 12.47 2.02 18.63 4.03.67.21 1.34.43 2.03.65 4.67 1.53 9.24 3.24 13.76 5.17 2.02.8 2.02.8 4.29 1.28.57.17 1.14.34 1.73.52v2c1.33.36 2.66.68 4 1 2.32 1.04 4.6 2.11 6.88 3.25.59.29 1.19.57 1.81.87 4.29 2.13 7.63 4.79 11.31 7.88 2.29 1.43 4.62 2.71 7 4-.05-.47-.05-.47-.28-2.84-.33-3.5-.67-7-1-10.5-.15-1.51-.29-3.02-.44-4.54-.21-2.17-.42-4.35-.62-6.53-.13-1.31-.26-2.62-.38-3.97-.25-3.24-.49-6.37-.28-9.62l2-1c3.54 10.7 4.79 21.94 5.17 33.18.3 8.13 1.31 13.12 5.83 19.82 6.57 10.91 12.15 21.05 13 34h-2c-.88-1.68-.88-1.68-1.77-4.02-.33-.86-.66-1.71-1-2.58-.34-.92-.69-1.83-1.04-2.78-.73-1.85-1.45-3.69-2.18-5.54-.35-.89-.7-1.77-1.06-2.69-6.41-16.07-18.31-29.57-33.95-37.39v-2c-1.58-.46-3.17-.9-4.77-1.31-2.56-.79-4.87-1.86-7.29-3-6.5-3.02-13.15-5.43-19.94-7.69-.85-.29-1.69-.58-2.56-.88-7.5-2.3-15.24-3.15-23-4.12-.93-.12-1.86-.23-2.82-.35-.84-.1-1.68-.2-2.55-.31C183 92 183 92 181 91c-2.68-.11-5.33-.16-8.02-.17-.8 0-1.61 0-2.44-.01-1.72 0-3.44-.01-5.16-.01-2.58 0-5.16-.02-7.74-.03-9.76-.04-19.02.47-28.64 2.22-.88.15-1.77.3-2.68.46C104.3 97.35 82.02 102.69 65 118c-.61.47-1.21.93-1.84 1.41-5.1 3.96-8.52 9.01-12.14 14.27-.67.77-1.33 1.53-2.02 2.32l-3-1c-.14-3.05-.14-3.05.19-6.88.09-1.25.19-2.51.29-3.8C47 121 47 121 49 118l1 10c.72-1.05 1.44-2.1 2.19-3.19 3.3-4.61 7.04-8.69 11.81-11.81h2v-2c1.98-1.39 3.93-2.65 6-3.88.3-.17.3-.17 1.81-1.08C81.29 101.58 88.85 98.06 97 95c.9-.35 1.81-.71 2.74-1.07 8.39-3.07 16.41-4.01 25.26-4.93V60h1l2 28 13-2c3.44-.16 6.78-.26 10.21-.23h2.72c1.87 0 3.74.01 5.61.02 2.85.02 5.7.02 8.55.02 1.83.01 3.66.02 5.5.02.42 0 .42 0 2.55.01 4.72.03 9.2.38 13.86 1.16-.02-.91-.05-1.82-.07-2.76-.16-11.51.75-22.81 2.07-34.24.07-.65.07-.65.44-3.93C193 43 193 43 195 40"/><path fill="#f5f9f9" d="M109 185v2c.44.14.44.14 2.69.88 4.91 1.66 7.93 4.08 10.62 8.5 2.93 6.4 3.19 14.53.77 21.12-3.5 5.98-8.48 10.3-15.08 12.5-6.49.87-12.38.97-18.06-2.56-3.92-3.05-5.93-5.93-7.94-10.44-.43-.91-.87-1.81-1.31-2.75-1.43-6.75-.82-13.08 2.75-19.06 6.81-9 14.62-11.21 25.56-10.19"/><path fill="#e9eca7" d="M100 350c1.65.14 3.29.29 4.94.44l2.77.24C110 351 110 351 111 352c2.06.36 4.12.66 6.19.94.62.08.62.08 3.8.52.66.09 1.31.17 1.99.27 3.3.44 6.6.92 9.9 1.39 2.04.3 4.08.59 6.12.88.06 4.33.09 8.67.12 13l.06 3.7c.08 14.97.08 14.97-3.49 20.24-4.47 2.81-10.45 2.34-15.57 2.44-.38.01-.38.01-2.35.11-5.15.08-8.36-.78-12.38-4.08-7.02-7.1-5.68-19.57-5.64-28.72.05-4.23.13-8.46.25-12.69"/><path fill="#e7eaa5" d="M222 350c.1 4.41.17 8.82.22 13.23.02 1.5.05 3 .08 4.49.35 15.5.35 15.5-4.3 22.28-5.91 5.76-11.64 5.23-19.57 5.15-4.01-.18-6.8-.46-10.43-2.15-2.92-3.86-3.4-6.83-3.51-11.61-.04-1.25-.07-2.5-.11-3.78-.02-1.3-.04-2.59-.07-3.92-.03-1.32-.07-2.63-.1-3.98-.08-3.24-.15-6.47-.21-9.71h-3v-3c6.68-2.2 13.75-3 20.69-4.06 2.21-.35 4.42-.69 6.63-1.04.49-.07.49-.07 2.94-.45 1.81-.3 3.61-.63 5.41-1.01C219 350 219 350 222 350"/><path fill="#1b847d" d="M263 225c5.67 3.86 5.67 3.86 6.59 7.01.21 1.99.31 3.99.41 5.99.16.5.16.5 1 3-1 2.48-1 2.48-2.44 5.19-.23.45-.23.45-1.43 2.73-.37.69-.75 1.37-1.13 2.08l4-1c-.56 1.87-.56 1.87-2 4-6.08 2.38-11.85 2.22-18.3 2.08-.54-.01-.54-.01-3.27-.05-2.28-.04-4.55-.09-6.83-.14-3.46-.08-6.92-.13-10.38-.17-2.21-.05-4.43-.09-6.65-.14-1.02-.01-2.05-.02-3.11-.04-6.13-.16-11.91-.73-17.46-3.54-2.69-2.94-2.69-2.94-4-6 .44-2.31.44-2.31 2-4 2.62-.62 2.62-.62 5-1v-2l3-1q1.605-2.955 3-6c1.57-1.57 3.14-1.24 5.31-1.31 3.1.06 4.46.18 7.19 1.75 1.88 3.22 2.02 5.85 2.13 9.54.12.66.24 1.33.37 2.02 4.68 3.12 9.52 2.46 15 2 4.72-1.17 8.43-3.74 12-7l1-2c3.06-.12 3.06-.12 6 0v-2c-2.5-1.12-2.5-1.12-5-2 1-2 1-2 3.44-3.44C261 228 261 228 263 225"/><path fill="#111613" d="M258.813 175.813c1.41 1.04 2.81 2.1 4.19 3.19.35.25.35.25 2.11 1.55 5.77 4.55 8.8 9.86 11.89 16.45.34.63.68 1.27 1.03 1.92 4.85 10.18 2.34 24.86-1.03 35.08h-1c-.02-.7-.03-1.4-.05-2.12-.07-3.23-.17-6.46-.26-9.69-.03-1.11-.05-2.21-.07-3.34-.32-9.7-1.38-21.61-8.62-28.85.62 1.15 1.24 2.31 1.87 3.5 4.26 7.94 4.42 15.76 4.32 24.56-.01.52-.01.52-.01 3.18-.08 14.39-.08 14.39-2.75 17.69-.47.36-.94.71-1.43 1.07-.03-.69-.05-1.38-.08-2.08-.06-.91-.11-1.81-.17-2.73-.05-.9-.1-1.79-.14-2.71-.77-3.13-2.02-3.72-4.61-5.48.14-2.78.9-4.79 2.03-7.33 1.62-4.48 1.45-8.96.97-13.67-.96-2.02-1.95-4.03-3-6 .31-3.38.31-3.38 1-6l-7-2 3-4c-.64-.41-1.28-.83-1.94-1.25-2.06-1.75-2.06-1.75-2.34-3.73-.72-2.02-.72-2.02-3.23-3.22-1.01-.3-2.02-.61-3.06-.93-3.06-.94-3.06-.94-5.43-1.87v-2c-2.98-.2-5.96-.38-8.94-.57-.43-.02-.43-.02-2.58-.16-.81-.05-1.61-.1-2.45-.15-.37-.02-.37-.02-2.27-.14-1.76.02-1.76.02-2.76 1.02-1.67.04-3.34.04-5 0v2c-2.08.69-3.81 1-6 1-6.5 4.43-13.5 9.29-16 17l-1 2h-2c-.63-2-.63-2-1-4-.46.99-.91 1.98-1.38 3-.53.99-1.07 1.98-1.62 3h-2c.92-8.02 5.38-14.94 11.31-20.38 16.14-12.52 40.22-13.77 57.5-2.81"/><path fill="#e0e5a5" d="M15 273h2c0 .98.01 1.96.01 2.97.32 15.46 4.76 27.91 15.99 39.03 2.91 2.41 5.85 4.72 8.91 6.93C44 324 44 324 44.45 326.61 44 329 44 329 41.69 331.31c-5.17 2.99-11.3 2.53-16.93 1.14-7.91-3.23-11.98-11.18-15.14-18.7C6.53 305.21 5.43 294.86 8 286h2c.08-.85.16-1.69.25-2.56.92-4.22 2.38-6.85 4.75-10.44"/><path fill="#e2e6a7" d="M308 275h2c5.9 10.27 6.48 21.49 4.49 32.95-.67 2.46-1.48 4.71-2.49 7.05-.36.86-.73 1.72-1.1 2.61-2.53 5.51-5.22 9.52-9.9 13.39h-3v2c-2.06.11-4.12.19-6.19.25-1.15.05-2.29.09-3.48.14-3.99-.47-5.65-1.42-8.33-4.39.32-3.28 1.45-4.76 3.91-6.85.3-.26.3-.26 1.8-1.57.63-.54 1.26-1.08 1.91-1.64 13.52-12.09 18.99-26.15 20.38-43.94"/><path fill="#121615" d="m91.313 168.688 3.28.03c7.9.11 7.9.11 11.41 1.28 1.19 3.07 1.19 3.07 2 6-2.2.71-3.6 1.1-5.87.53-3.78-.93-7.59-.47-11.44-.28-.83.03-1.66.06-2.52.08-8.8.44-14.42 3.25-20.42 9.55l-1.56 1.56c-4.23 4.33-6.98 8.82-9.38 14.37-.34.8-.69 1.59-1.04 2.4-.26.59-.51 1.18-.77 1.79l2 1-2 3c-.28 2.55-.47 5.01-.57 7.57-.31 7.19-.31 7.19-1.43 9.43l1 2c.13 2.67.04 5.33 0 8-4.36-4.35-3.19-12.55-3.19-18.43-.01-.81-.02-1.62-.04-2.45-.01-5.4.76-9.93 2.23-15.12.34-1.66.68-3.33 1-5-.66 1.66-1.3 3.33-1.94 5-.36.93-.72 1.86-1.09 2.81-2.14 7.03-2.21 14.4-2.54 21.69-.04.92-.08 1.84-.13 2.78l-.3 6.72c-4.83-4.83-4.25-13.54-4.31-20 .09-13.08 4.67-23.21 13.62-32.81 4.08-3.82 8.78-6.56 13.69-9.19.55-.35 1.1-.69 1.66-1.05 6.09-3.57 11.73-3.45 18.65-3.26"/><path fill="#509144" d="M237.172 12.617c6.17 5.1 6.17 5.1 6.83 9.38l-3-1c.02.33.02.33.1 1.98.31 9.84.31 9.84-3.1 14.02-3.44.63-3.44.63-7 0-2.98-2.25-4.58-4.59-6-8-.47-3.7-.49-7.29 0-11 2-2.43 2-2.43 4-4v-4c-5.77.33-10.16.59-15 4-.36.04-.36.04-2.19.25-.3.13-.3.13-1.81.75-.74 2.31-1.41 4.65-2 7-.33.17-.33.17-2 1-.61 2.47-.96 4.95-1.34 7.46-.66 2.54-.66 2.54-2.19 4.43-2.08 2.99-1.92 5.45-2.03 9.05-.16 4.54-.57 7.92-2.44 12.06-1.47 6.92-1.15 13.96-1 21-.01 1.02-.01 2.04-.02 3.1.14 4.6.14 4.6 1.02 6.9 3.56 1.13 3.56 1.13 7 1v2c-7.63-.87-7.63-.87-11-2-.33-2.31-.33-2.31-.25-5.43.03-1.17.05-2.33.08-3.53.05-1.34.11-2.69.17-4.04l.09-2.31c.11-2.42.22-4.83.35-7.25.03-.77.07-1.55.11-2.34.2-3.5.6-6.71 1.45-10.1.07-1.91.08-3.83.06-5.75l-.03-2.98-.03-2.27h-2c.16-1.48.16-1.48 1-9h1v6h2c.06-1.07.12-2.14.19-3.25 1.33-10.15 6.11-19.03 13.81-25.75 8.02-4.35 18.07-2.66 25.17 2.62"/><path fill="#101f0b" d="M125 60h1l2 28c.93-.08.93-.08 5.62-.5 7.7-.57 15.41-.64 23.13-.68 1.38 0 2.75-.01 4.13-.03 1.96-.02 3.93-.02 5.89-.02 1.15 0 2.3-.01 3.49-.01C173 87 173 87 175 89c-3.37 1.01-6.51 1.17-10.02 1.25l-3.58.09c-.62.02-.62.02-3.78.1-9.7.3-19.08.71-28.62 2.56l-4.68.84C102.92 97.81 81.57 103.09 65 118c-.61.47-1.21.93-1.84 1.41-5.1 3.96-8.52 9.01-12.14 14.27-.67.77-1.33 1.53-2.02 2.32l-3-1c-.14-3.05-.14-3.05.19-6.88.09-1.25.19-2.51.29-3.8C47 121 47 121 49 118l1 10c.72-1.05 1.44-2.1 2.19-3.19 3.3-4.61 7.04-8.69 11.81-11.81h2v-2c1.98-1.39 3.93-2.65 6-3.88.6-.35 1.19-.71 1.81-1.08C81.29 101.58 88.85 98.06 97 95c.9-.35 1.81-.71 2.74-1.07 8.39-3.07 16.41-4.01 25.26-4.93z"/><path fill="#30817a" d="M75.094 230.559c1.91.44 1.91.44 4.41 2.44 1.53 3.07 1.6 3.94 1.37 7.19.04 1.26.08 2.52.13 3.81 3 1.44 3 1.44 6 2v1l-3.38-.06c-3.62.06-3.62.06-5.62 1.06v2c7.58.97 15.17 1.45 22.81 1.78 1.43.06 2.86.14 4.29.23 2.08.12 4.15.21 6.24.3l3.73.18c.96-.16 1.93-.32 2.93-.49 1.29-2.52 1.29-2.52 2-5h2v-4h2v-6h-2v-2c2.06.5 2.06.5 4 2 .09 5.58-1.47 9.57-4.07 14.44-5.92 4.79-18.06 2.71-25.48 2.69-2.25 0-4.5 0-6.75.01-23.94.02-23.94.02-29.7-4.14-1.07-2.5-1.07-2.5-1-5 1.32-1.01 2.66-2 4-3 .67-2.33 1.34-4.66 2-7 2.72-4.08 5.4-4.71 10.09-4.44"/><path fill="#13847d" d="M111 231c4.35-.09 7.53 1.45 11 4v2h2v6h-2v4c-1.44 1.62-1.44 1.62-3 3l-1 2c-2.82.26-2.82.26-6.56.27h-2.02c-1.41 0-2.83 0-4.25-.01-2.13-.01-4.27 0-6.41.01-7.19.01-13.81-.32-20.76-2.27.24-1.96.24-1.96 1-4 1.79-.53 1.79-.53 4.11-.57l2.54-.09c.44 0 .44 0 2.66-.03 1.73-.04 3.45-.09 5.18-.13.77-.02 1.54-.03 2.33-.04 3.1-.2 5.42-.46 7.78-2.56.48-.58.96-1.17 1.46-1.77.52-.62 1.04-1.24 1.57-1.88C108 237 108 237 109.5 233.5c.25-.41.25-.41 1.5-2.5"/><path fill="#3b6734" d="M83 9c-1.75 4.87-1.75 4.87-4 6l-1 3.06L77 21h-2c-.37 1.66-.7 3.33-1 5-.94 2.31-.94 2.31-2 4h-2c.06 1.13.12 2.27.19 3.44-.03.59-.03.59-.19 3.56l-3 1c-.27 1.63-.53 3.26-.69 4.9-.69 4.71-2.46 9.31-4.5 13.6-.85 2.63-.78 4.26-.62 7 .06 2.39.06 2.39-.19 4.5-.78.76-1.57 1.53-2.38 2.31-3.6 3.69-3.64 7.04-4.26 12.05C54 85 54 85 53 87h-2c.06-.56.12-1.12.18-1.7.09-.8.17-1.6.26-2.42.1-.93.19-1.85.29-2.81.18-2.03.3-4.07.35-6.11.67-20.21 8.44-45.6 22.46-60.61C76.98 11.09 79.6 9 83 9"/><path fill="#525346" d="M27 229h1c.05 2.6.09 5.21.12 7.81l.06 2.24c.03 3.86.01 5.66-2.18 8.95-.4 1.92-.73 3.87-1 5.81-.65 4.25-1.43 8.16-3 12.19l-2-2c-1.04 8.31-1.52 16.64-2 25h-1v-16h-2c-1.09 2.32-1.9 4.69-2.72 7.11-.7 1.99-1.49 3.94-2.28 5.89H8c-.05 2.67-.09 5.33-.12 8l-.06 2.25c-.09 10.52 3.18 21.89 9.72 30.28 4.36 4.39 9.06 5.71 15.15 5.91 4.26-.15 6.84-.84 10.31-3.44h3c.16-.5.16-.5 1-3l2 2c-6.33 5.88-10.76 9.57-19.67 9.3-6.8-.88-11.43-4.7-15.66-9.9C4.7 314.5 2.92 302.25 5 287c1.14-5.07 3.3-9.1 6.35-13.27C20.22 261.53 22.24 249.75 24 235h1v8h2z"/><path fill="#b4bc7e" d="M100 350c10 1 10 1 11 2 2.06.36 4.12.66 6.19.94.62.08.62.08 3.8.52.66.09 1.31.17 1.99.27 3.3.44 6.6.92 9.9 1.39l6.12.88v27h-1v-19l-7.62.12c-10.18.07-19.67-.88-29.38-4.12v17h-1z"/><path fill="#b4ba7c" d="M222 350c.48 7.39.48 7.39-1.44 9.81-8.67 4.02-16.94 5.36-26.44 5.25L186 365v23h-1l-1-28h-3v-3c6.68-2.2 13.75-3 20.69-4.06 2.21-.35 4.42-.69 6.63-1.04.49-.07.49-.07 2.94-.45 1.81-.3 3.61-.63 5.41-1.01C219 350 219 350 222 350"/><path fill="#191e18" d="M249 122c4.19 3.35 7.91 8 10 13-.37 2.25-.37 2.25-1 4-.53-.46-1.07-.92-1.62-1.39-8.22-6.77-15.61-10.38-26.42-10-4.72.62-8.72 2.29-12.96 4.39-.32.15-.32.15-1.95.93q-2.04 1.005-4.05 2.07c.89-6.49 4.73-10.48 9.82-14.4 8.84-5.2 19.59-3.43 28.18 1.4"/><path fill="#171d18" d="M104.86 122.281c2.99 2.4 5.09 4.46 7.14 7.72-.19 2.37-.19 2.37-1 4-.64-.43-1.28-.87-1.94-1.31-8.61-4.75-17.33-6.26-27.02-4-5.5 1.8-9.58 4.07-13.7 8.14-1.34 1.17-1.34 1.17-3.34 1.17.16-6.41 3.74-10.55 8-15 9.31-7.22 22.34-7.23 31.86-.72"/><path fill="#2a3e29" d="M241.688 10.688c8.39 8.39 16.31 21.17 16.31 33.31l-2 3c-.24-.82-.49-1.65-.74-2.5-2.37-7.31-5.29-13.72-9.38-20.25-.43-.69-.87-1.38-1.31-2.09-1.99-3.08-3.48-5.1-6.57-7.16v-2c-1.62-1-1.62-1-4-2-.86-.37-1.73-.74-2.62-1.12-5.87-1.52-11.2-1.43-17.07.06-8.4 5.23-12.54 14.13-14.92 23.47-.17.73-.34 1.46-.51 2.22l-.88 3.37h-2c-.88-10.41 2.77-20.32 9.39-28.41 11.01-10.85 24.67-7.2 36.3.1"/><path fill="#343b31" d="M195 40c2 2 2 2 2.23 4.46-.01.96-.03 1.92-.04 2.92-.01.95-.02 1.91-.02 2.89-.17 2.73-.17 2.73-.65 4.45-.72 3.14-.86 6.24-1.06 9.45-.04.68-.08 1.37-.13 2.07l-.39 6.51c-.09 1.48-.19 2.95-.28 4.43L194 88l13 2v1l-6 1v1c-6.23.19-11.98.3-17.98-1.49-3.93-.99-7.99-1.2-12.02-1.51l2-2h-42v-1c6.66-.78 13.21-1.15 19.92-1.13.9 0 1.8 0 2.73-.01 1.89 0 3.78.01 5.66.01 2.88.01 5.76 0 8.63-.01 1.85 0 3.69.01 5.54.01.85 0 1.7-.01 2.58-.01 4.75.02 9.25.35 13.94 1.14-.02-.91-.05-1.82-.07-2.76-.16-11.51.75-22.81 2.07-34.24.15-1.3.29-2.6.44-3.93C193 43 193 43 195 40"/><path fill="#415d3d" d="M106.457 5.766c8.45 4.73 12.63 13.3 15.29 22.23.82 2.99 1.56 5.99 2.25 9 .16.66.31 1.32.47 2 3.58 15.99 3.72 32.69 4.53 49-2.4-3.6-2.43-6.5-2.62-10.68l-.12-2.13c-.09-1.73-.18-3.46-.26-5.19h-2c-.06-.53-.06-.53-.4-3.21-.18-1.38-.36-2.77-.53-4.16-.09-.7-.18-1.4-.27-2.12-.68-5.28-.68-5.28-1.8-7.51-.22-1.87-.41-3.74-.56-5.62-.08-1-.17-2.01-.25-3.04-.06-.77-.12-1.54-.19-2.34-.33.17-.33.17-2 1-.06-.59-.12-1.18-.18-1.8-.29-2.73-.61-5.46-.94-8.2-.09-.93-.19-1.86-.28-2.83-.85-6.75-2.78-11.29-7.6-16.17l-3-2v-2l-18-2v-2c5.12-2.55 13.11-1.9 18.46-.23"/><path fill="#3b3a32" d="M290 161c2.22 3.32 3.06 6.44 4 10.25.17.62.33 1.25.5 1.89 2.98 11.92 3.76 24.15 4.33 36.38.72 14.96 1.72 29.78 5.36 44.36.19.78.39 1.57.59 2.39.39 1.48.79 2.97 1.21 4.44.53 1.98.53 1.98 1.01 5.29-1.4 1.96-1.4 1.96-3 3-.25-1.26-.5-2.52-.75-3.81-.79-3.61-1.87-6.92-3.22-10.35-2.02-5.49-3.06-10.73-3.72-16.53-.12-1.01-.25-2.03-.37-3.07-1.05-9.37-1.2-18.73-1.35-28.15-.25-13.69-2.45-26.77-5.59-40.09h2z"/><path fill="#343329" d="M225 353h1c.6 33.06.6 33.06-6 41-6.6 5.45-15.99 4.7-24.06 4.18-3.87-.36-7.7-.95-10.94-3.18-3.15-4.18-3.35-7.32-3.29-12.49 0-.7.01-1.4.01-2.13q.03-3.345.09-6.69c.02-1.52.03-3.04.04-4.56q.06-5.565.15-11.13c.5.33.5.33 3 2 .4 2.72.4 2.72.44 6.14.03 1.24.05 2.47.08 3.74.02 1.3.03 2.6.04 3.93.04 2.55.08 5.1.13 7.65.01 1.13.03 2.27.04 3.43.27 3.14.78 5.34 2.27 8.11 2.57.76 4.35.94 7 1l3.33.15c12.33.33 12.33.33 17.67-3.15 3.8-4.8 5.09-8.52 5.32-14.54l.12-3.25.12-3.4c.02-.56.02-.56.13-3.43.11-2.79.21-5.58.31-8.38h1c.16 1.81.16 1.81 1 11z"/><path fill="#4e8545" d="m258 47 3 1c1 2.85 1.79 5.57 2.5 8.5.21.85.43 1.7.65 2.57 5.18 21.06 5.18 21.06 4.85 29.93-1.42-2.65-2.32-5.08-3-8 .91 13.26.91 13.26 1.56 19.56.59 6.15.53 12.27.44 18.44-5.71-2.83-11.26-5.69-16-10v-2c2.5.38 2.5.38 5 1v2h2v2l6 1c-.06-.76-.12-1.51-.18-2.29-.28-3.45-.55-6.89-.82-10.33-.1-1.19-.19-2.38-.29-3.61-.09-1.15-.18-2.31-.27-3.5-.09-1.05-.17-2.11-.26-3.2-.18-3.03-.21-6.03-.18-9.07h-2c-.6-2.12-.6-2.12-1.06-4.88-.86-4.95-.86-4.95-1.94-7.12-.1-1.66-.13-3.33-.12-5-.01-.89-.01-1.77-.01-2.69C258 59 258 59 259 57l-1-3c-.04-2.33-.04-4.67 0-7"/><path fill="#63d84b" d="M234 14c3.49 2.91 6.42 6.72 7.55 11.17.17 4.5-.8 8.29-3.55 11.83-3.44.62-3.44.62-7 0-2.97-2.25-4.58-4.59-6-8-.62-4.89-.98-9.44 1.69-13.69 2.78-1.58 4.14-1.72 7.31-1.31"/><path fill="#111914" d="M109 174c8.39.7 13.52 3.6 19 10 1.55 2.43 2.23 4.18 3 7l-1 3-3-3c.47 1.01.95 2.02 1.44 3.06 3.33 7.1 2.74 15.23 2.75 22.88l.03 3.17c.02 5.97-.31 11.21-2.22 16.89-.33.16-.33.16-2 1 .07-.84.14-1.67.22-2.54 1.98-24.86 1.98-24.86-.22-30.46h-2c-1.06-2.75-1.06-2.75-2-6-.21-.66-.41-1.32-.62-2-.38-2-.38-2-.32-5.12C122 189 122 189 120 187c-.23-.99-.45-1.98-.69-3-.43-.99-.86-1.98-1.31-3-2.32-.7-4.66-1.37-7-2-1.44-2.62-1.44-2.62-2-5"/><path fill="#64d74a" d="M102.5 14.563c3.5.44 3.5.44 6.5 2.44 2.9 5.94 3.08 13.75 1 20-3.83.85-6.25 1.25-10 0-3.44-4.52-4.62-9.35-4.31-14.95.75-4.92 1.75-6.86 6.81-7.49"/><path fill="#182712" d="M199 91c8.45-1.59 16.23.91 24 4 .94.37 1.87.74 2.84 1.12 1.67.67 3.34 1.35 5 2.05 2.16.83 2.16.83 4.44 1.32.57.17 1.14.34 1.72.51v2c1.33.36 2.66.68 4 1 18.09 8.09 18.09 8.09 22 13-.31 2.18-.31 2.18-1 4-3.57-1.32-6.64-2.9-9.81-5-.79-.52-1.58-1.03-2.4-1.56-.59-.48-1.18-.95-1.79-1.44v-2c-1.58-.46-3.17-.9-4.77-1.31-2.56-.79-4.87-1.86-7.29-3C224.01 100.14 211.13 95.46 198 94z"/><path fill="#27291a" d="M305 265c4.94 4.79 9.68 9.4 10.31 16.5-.1.82-.2 1.65-.31 2.5l-3-1c-.66-1.85-.66-1.85-1.06-4.06-.41-2.23-.41-2.23-.94-3.94h-2c.05.56.09 1.12.14 1.7.66 14.56-5.19 26.82-14.58 37.55-3.65 3.9-7.31 7.52-11.56 10.75h-3l-1 3c.21-4.01.6-5.6 3.51-8.46.53-.39.53-.39 3.18-2.35 5.32-4.15 9.09-8.25 12.31-14.19.38-.68.75-1.36 1.14-2.06 1.03-1.96 1.98-3.9 2.86-5.94.52-1.16 1.04-2.33 1.57-3.53 1.94-5.23 1.99-10.44 2.12-15.97.03-1.01.07-2.03.1-3.07.08-2.48.15-4.95.21-7.43"/><path fill="#b7bf81" d="M294 313c1.59 3.19 1.86 6.73 2.25 10.25.75 1.75.75 1.75 3.31 2.81.81.31 1.61.62 2.44.94v3c-1.32.37-2.66.71-4 1v2c-2.06.11-4.12.19-6.19.25-.57.02-.57.02-3.48.14-3.99-.47-5.65-1.42-8.33-4.39.32-3.3 1.52-4.85 3.94-7.02.58-.52 1.17-1.05 1.77-1.6.61-.54 1.22-1.07 1.85-1.63.62-.55 1.23-1.11 1.87-1.68 1.52-1.36 3.04-2.72 4.57-4.07"/><path fill="#090e06" d="M125 60h1l2 28c.93-.08.93-.08 5.62-.5 7.7-.57 15.41-.64 23.13-.68 1.38 0 2.75-.01 4.13-.03 1.96-.02 3.93-.02 5.89-.02 1.15 0 2.3-.01 3.49-.01C173 87 173 87 175 89c-3.37 1.01-6.51 1.17-10.02 1.25l-3.58.09c-1.25.03-2.49.06-3.78.1-10.75.32-21 1.12-31.57 3.12-3.19.46-6.21.54-9.43.5-.52 0-.52 0-3.21-.02-.79-.02-1.59-.03-2.41-.04 3.06-1.77 5.19-2.06 8.68-2.18 2.39-.5 2.39-.5 4.32-1.82 1.38-4.99 1.17-9.99 1.06-15.12.01-1.44.01-2.88.02-4.31.02-3.53-.01-7.05-.08-10.57"/><path fill="#4d4d43" d="M142 357c2.12 4.24.87 9.99.69 14.62-.04 1.17-.07 2.33-.11 3.53-.57 15.04-.57 15.04-3.94 19.74-7.89 5.31-19.11 5.34-28.14 3.64-5.14-1.63-7.7-4.12-10.5-8.53-1.16-4.64-1.02-8.35 0-13 1.87 3.5 2.86 6.95 3.83 10.78 1.78 3.38 3.78 4.51 7.17 6.22 3.02.5 5.94.47 9 .38.78-.01 1.56-.01 2.37-.01 4.53-.07 8.43-.46 12.63-2.37 2.13-3.19 2.5-5.27 3-9l2 1c.01-.39.01-.39.08-2.37.11-3.52.23-7.05.36-10.57l.12-3.73.12-3.54c.04-1.09.08-2.17.11-3.29.21-2.5.21-2.5 1.21-3.5"/><path fill="#132925" d="m123 199 2 1c.12 2.56.12 2.56 0 5h2c2.01 3.04 2.25 5.54 2.23 9.13 0 .97 0 1.94-.01 2.94 0 .51 0 .51-.03 3.05v3.08c-.05 7.52-.05 7.52-1.19 9.8-2.52-.24-4.75-.91-7.12-1.78-4.72-1.72-7.86-2.64-12.88-1.22 2-2 2-2 4.88-3.38 5.35-2.78 7.83-6.08 10.12-11.62.34-2.81.29-5.55.19-8.38-.02-.73-.03-1.47-.04-2.23-.04-1.79-.09-3.59-.15-5.39"/><path fill="#548749" d="M52 69h1c.23 6.28-.6 11.88-2 18h2l2-14h2c-.14 3.63-.29 7.25-.44 10.88L56.44 87l-.12 2.99c-.04.91-.08 1.82-.11 2.76C56 95 56 95 55 97c-.22 1.54-.41 3.08-.56 4.62-.09.82-.17 1.64-.26 2.48-.06.63-.12 1.25-.18 1.9h-1c.01.59.02 1.18.04 1.79.04 4.21.02 8.1-1.04 12.21h2l1-3c1.33-.67 2.67-1.33 4-2l2.44-2.44c2.4-2.4 4.6-3.95 7.56-5.56v3c-.5.16-.5.16-3 1v2c-1.66 1.15-3.32 2.3-4.98 3.43-2.94 2.29-5.19 5.03-7.54 7.9C52 126 52 126 50 127c-.28-12.81.51-25.27 2-38h-2c-.62 2-.62 2-1 4-.15-5.71.32-10.9 1.44-16.5.06-.36.06-.36.41-2.2.34-1.78.74-3.54 1.15-5.3"/><path fill="#e5f3f3" d="M218.836 230.621c2.16.38 2.16.38 4.73 1.94 2.02 3.44 2.05 5.51 1.43 9.44-1.93 3-1.93 3-5 5-3.16.31-6.02.17-9-1-2.41-3.58-2.37-6.76-2-11 1.85-4.79 5.23-4.61 9.84-4.38"/><path fill="#e6f3f3" d="M77 231c3.19 4.08 3.57 7.93 3 13-1.6 2.17-2.49 2.91-5.16 3.4-.77-.01-1.54-.02-2.34-.02-.77 0-1.55.01-2.34.02-2.7-.5-3.58-1.17-5.16-3.4-.86-4.19-.66-7.87 1.5-11.56 3.86-2.22 6.07-2.14 10.5-1.44"/><path fill="#215544" d="M263 225c5.67 3.86 5.67 3.86 6.59 7.01.21 1.99.31 3.99.41 5.99l1 3c-1 2.48-1 2.48-2.44 5.19-.47.9-.94 1.8-1.43 2.73-.37.69-.75 1.37-1.13 2.08l4-1c-.56 1.88-.56 1.88-2 4-6.25 2.85-12.33 1.81-19 1v-1c.9-.06 1.81-.13 2.74-.19 9.44-.98 9.44-.98 11.79-3.36 1.37-3.2 1.47-5.99 1.47-9.45-3.5-1.75-3.5-1.75-7-3l2-1v-2c-2.5-1.12-2.5-1.12-5-2 1-2 1-2 3.44-3.44C261 228 261 228 263 225"/><path fill="#272717" d="M20 263h1c-.03.71-.06 1.42-.1 2.15-.66 17.27-1.03 31.46 11.04 45.1C38.39 317.04 46.61 323.8 55 328l-1 2-7-3-1 2h-2c-.28-.91-.55-1.83-.84-2.77-1.34-3.74-2.51-4.68-5.72-6.92-9.3-7.09-17.49-16.42-19.44-28.31-1.69-20.24-1.69-20.24 2-28"/><path fill="#2d2d21" d="M130 276c2.96.56 5.84 1.22 8.75 2 7.94 1.99 15.97 2.19 24.13 2.19h2.93c15.19-.14 15.19-.14 21.28-3.26C189 276 189 276 192 276c-.21 1.89-.21 1.89-1 4-2 1.01-2 1.01-4.56 1.69-.83.23-1.66.46-2.51.7-15.53 3.24-39.83 5.01-53.93-3.39z"/><path fill="#1e2d1d" d="M83 9c-.97 3.18-1.66 4.74-4.34 6.78-9.81 8.18-14.68 24.81-18.41 36.66-.41 1.17-.83 2.35-1.25 3.56h-2c.04-9.58 3.16-17.41 7-26 .21-.48.21-.48 1.26-2.9C68.34 20.45 74.53 9 83 9"/><path fill="#395233" d="M195 40c2 2 2 2 2.23 4.46-.01.48-.01.48-.04 2.92-.01.47-.01.47-.02 2.89-.17 2.73-.17 2.73-.65 4.45-.72 3.14-.86 6.24-1.06 9.45-.04.68-.08 1.37-.13 2.07l-.39 6.51c-.09 1.48-.19 2.95-.28 4.43L194 88l13 2v1c-.99.16-.99.16-6 1v1c-12.67.18-12.67.18-18-1v-1h12v-2h-2V63l-2 4c-.7-19.95-.7-19.95 4-27"/><path fill="#27291f" d="M271 188c7.85 9.31 10.13 19.07 9.22 31.01-.56 5.09-1.61 10.12-3.22 14.99h-1c-.01-.7-.03-1.4-.04-2.12-.08-3.23-.18-6.46-.27-9.69-.03-1.1-.05-2.2-.07-3.34-.28-8.64-1.92-16.18-4.87-24.29-.79-2.69-.75-3.97.25-6.56"/><path fill="#4e8d43" d="M123 67c3.78 5.68 3.71 13.42 2.74 20.06C125 89 125 89 121.85 90.78c-3.56.76-7.16.93-10.79 1.08-11.3.78-25.33 8.03-34.95 13.91C74 107 74 107 71.69 106.69c-.56-.23-1.12-.46-1.69-.69h2c.11-.32.11-.32.69-1.94.21-.34.21-.34 1.31-2.06 3.62-.75 3.62-.75 7-1v-2c3.29-1.1 6.52-1.92 9.94-2.5.34-.08.34-.08 2.06-.5v-2c2.58-.66 5.18-1.03 7.81-1.44.72-.18 1.45-.37 2.19-.56v-2c2.21-.34 4.42-.67 6.62-1 1.23-.19 2.46-.37 3.73-.56 3.27-.39 6.37-.52 9.65-.44-.08-1.26-.17-2.53-.25-3.83-.11-1.66-.21-3.32-.31-4.98-.03-.42-.03-.42-.17-2.53-.05-.8-.1-1.6-.15-2.43-.05-.74-.09-1.48-.14-2.24C122 70 122 70 123 67"/><path fill="#424237" d="M12 319c.56.72 1.11 1.44 1.69 2.19 4.5 5.47 8.56 10.3 15.96 11.1 5.36.16 8.94.02 13.35-3.29h3l1-3 2 2c-6.33 5.88-10.76 9.57-19.67 9.3-7.08-.92-11.43-4.99-15.98-10.2-1.54-2.4-2.05-4.28-2.35-7.1z"/><path fill="#257069" d="m262 239 4 2c-.08 5.1-.47 8.18-4 12-9.31 3.12-20.34 2.31-30.05 2.26-2.61-.01-5.21 0-7.81.01h-4.99c-.78 0-1.55 0-2.35.01-3.8-.04-5.56-.12-8.8-2.28.45-.01.45-.01 2.71-.08 16.77-.47 33.54-.96 50.29-1.92z"/><path fill="#1d301c" d="M223.313 5.938c.74 0 1.48.01 2.24.01 1.82.02 3.63.03 5.45.05v1c-.92.01-1.84.01-2.78.01-12.3.39-12.3.39-17.55 5.16-5.97 6.56-8.71 13.14-11.02 21.6-.49 1.76-1.07 3.5-1.65 5.23h-2c-.91-10.68 2.96-20.17 9.57-28.51 4.98-5.19 11.02-4.63 17.74-4.55"/><path fill="#504f49" d="M298 212h1c.04.71.09 1.42.14 2.15.94 14.52 2.13 28.43 5.82 42.53.31 1.18.61 2.36.92 3.57.28 1.04.57 2.07.86 3.14.26 2.61.26 2.61-1.17 4.47-.52.38-1.04.75-1.57 1.14-.12-.63-.12-.63-.75-3.81-.79-3.62-1.88-6.93-3.25-10.38-3.12-8.26-4.16-17.01-4-25.81h1z"/><path fill="#213520" d="M104 5c6.32 2.12 10.88 7.23 14 13 .7 2.44.89 4.44 1 7h-3c-.96-1.57-.96-1.57-1.81-3.69-2-4.4-4.41-6.39-8.19-9.31v-2L88 8V6c4.69-2.34 10.91-1.48 16-1"/><path fill="#2d2e25" d="m47 197 .94 1.94C49 201 49 201 50 202c-.05 2.45-.17 4.87-.34 7.32-.05.73-.09 1.46-.14 2.21-.15 2.35-.3 4.69-.46 7.03l-.3 4.76c-.25 3.89-.5 7.79-.76 11.68-5.24-5.24-4.31-15.09-4.31-22.08.12-5.68 1.19-10.67 3.31-15.92"/><path fill="#14201b" d="M272 206h1c.03 3.85.05 7.71.06 11.56l.03 3.29c.04 14.75.04 14.75-2.65 18.09-.48.35-.95.7-1.44 1.06-.03-.69-.05-1.37-.08-2.08-.05-.9-.11-1.8-.17-2.73-.05-.9-.09-1.79-.14-2.71-.77-3.13-2.02-3.71-4.61-5.48.14-2.75.89-4.75 2-7.25 1.4-3.84 1.66-7.69 2-11.75l2 1c.15 2.72.19 5.34.12 8.06 0 .76-.01 1.52-.02 2.3-.03 1.88-.06 3.76-.1 5.64h2z"/><path fill="#c6c9be" d="M265 187c7.62 6.77 10.45 15.13 11.25 25.16.17 3.47.28 6.93.37 10.4l.12 3.64c.1 2.93.18 5.87.26 8.8-.82.16-.82.16-5 1 .02-.86.03-1.71.05-2.6.05-3.22.09-6.44.11-9.67.02-1.38.04-2.77.07-4.16.21-11.69-1.16-20.53-7.23-30.57z"/><path fill="#4f7a48" d="M101 4v1c-2.14.17-2.14.17-13 1v2c.4-.01.4-.01 2.41-.07 11.07-.19 11.07-.19 15.59 2.07v2c.31.15.31.15 1.88.94C110 14 110 14 112 17h-4v-3c-2.94-1.12-2.94-1.12-6-2l-1-1c-1.64-.12-3.29-.18-4.94-.19-.89-.01-1.79-.03-2.71-.04C91 11 91 11 89 13c-3.62 1.37-7.19 2.33-11 3l1-2h2c1.12-2.5 1.12-2.5 2-5-.31.26-.31.26-1.88 1.56-.7.48-1.4.95-2.12 1.44l-2-1c7.81-6.86 13.91-7.45 24-7"/><path fill="#565449" d="M225 353h1c.6 32.92.6 32.92-6 41-3.25 1.5-3.25 1.5-6 2-.16-.5-.16-.5-1-3 .74-.58 1.49-1.15 2.25-1.75 4.12-3.37 5.47-6.9 6.08-12.07.19-3.21.29-6.41.36-9.62.03-1.11.07-2.22.1-3.37q.12-4.095.21-8.19h1l1 11z"/><path fill="#192819" d="M266 80h1c.56 1.67 1.04 3.36 1.5 5.06.26.94.52 1.88.78 2.85 1.72 7.39 1.84 14.48 1.78 22.03 0 1.06-.01 2.13-.01 3.23-.01 2.61-.03 5.22-.05 7.83l-2-1c-.47-2.39-.8-4.69-1.07-7.11-.09-.71-.17-1.43-.26-2.17-.18-1.52-.36-3.04-.53-4.56-.26-2.32-.54-4.64-.82-6.95-.17-1.48-.34-2.96-.52-4.44l-.24-2.08c-.44-3.92-.73-7.75-.56-11.69z"/><path fill="#30896c" d="M121.48 221.898c2.71.48 5.03.92 7.52 2.1.71 3.62.65 5.7-1 9-2.52-.23-4.75-.91-7.12-1.78-4.72-1.72-7.86-2.64-12.88-1.22 2-2 2-2 4.94-3.44 3.06-1.56 3.06-1.56 4.43-3.18 1.63-1.38 1.63-1.38 4.11-1.48"/><path fill="#d7ddcc" d="M265 256c-5.65 4.86-9.44 5.15-16.75 5.06-.7 0-1.39-.01-2.11-.01-1.72-.01-3.43-.03-5.14-.05v-2l-24-1v-1c1.05-.03 2.1-.05 3.18-.08 3.92-.09 7.84-.19 11.76-.29 1.69-.05 3.38-.09 5.08-.13l7.32-.18c.75-.02 1.5-.04 2.26-.05 3.64-.1 7.18-.33 10.78-.82 3.07-.38 4.79-.51 7.62.55"/><path fill="#293a28" d="m258 47 3 1c.8 1.67.8 1.67 1.39 3.83.1.4.1.4.65 2.41.22.85.43 1.7.65 2.57.22.86.44 1.72.67 2.6C265.97 66 266.61 72.21 266 79l-3-1a78 78 0 0 1-1.56-8.12c-.82-5.45-1.91-10.58-3.44-15.88-.07-2.33-.1-4.67 0-7"/><path fill="#b2b980" d="M33 316c1.46.96 2.92 1.91 4.38 2.88l2.46 1.61c4.01 2.8 4.01 2.8 4.66 5.89-.5 2.62-.5 2.62-3.19 4.93-3.22 1.64-4.79 2.1-8.31 1.69.16-.56.32-1.11.49-1.68.56-2.53.64-4.8.63-7.38.01-.86.01-1.72.01-2.6C34 319 34 319 33 316"/><path fill="#0a0b01" d="M141 354c2.9-.39 5.19-.45 8.07-.27l2.41.09c2.55.1 5.1.23 7.64.37l5.18.21c4.24.17 8.47.38 12.7.6v1c-.51.01-.51.01-3.11.08-3.78.09-7.57.19-11.36.29-1.64.05-3.29.09-4.93.13-2.35.05-4.71.12-7.06.18-.74.02-1.48.04-2.24.05-5.19.16-5.19.16-6.3 1.27-.15 1.85-.23 3.71-.28 5.57-.02.58-.02.58-.11 3.47-.04 1.2-.07 2.41-.11 3.65-.07 2.36-.14 4.71-.22 7.07l-.09 3.19c-.19 3.07-.63 6.02-1.19 9.05h-1c-.05-4.32-.09-8.65-.11-12.97-.01-1.47-.02-2.94-.04-4.41-.03-2.12-.04-4.23-.05-6.35l-.03-3.86c.39-5.87.39-5.87 2.23-8.41"/></svg>