<svg xmlns="http://www.w3.org/2000/svg" width="190" height="202"><path fill="#fcf9f6" d="M74.563 6.25c1.13.25 2.27.5 3.44.75.61-.47 1.23-.95 1.87-1.44 2.72-1.99 4.3-1.9 7.63-1.81.47.01.47.01 2.84.05 2.66.2 2.66.2 4.88.78 1.78.42 1.78.42 3.78-.58 5.16.04 9.03.51 13 4l2-1c5.67-.52 10.38-.73 15 3l1 1c1.89.22 3.79.42 5.68.63 5.57.86 8.11 2.22 11.43 6.71.89 1.66.89 1.66.89 3.66.86-.08 1.73-.16 2.62-.25 4.25.31 6.11 1.56 9.38 4.25 2.57 3.44 3 4.6 3 9 1.66.36 3.33.69 5 1 2.62 2.44 2.98 3.84 3.37 7.44.77 4.37 2.35 5.69 5.63 8.56 1.37 2.74 1.12 4.97 1 8l-1 2c.62.19 1.24.37 1.87.56 2.13 1.44 2.13 1.44 3.5 4.63.63 3.81.63 3.81-.43 7.44-.94 3.37-.94 3.37.43 5.81.27.42.27.42 1.63 2.56.35 4.4.35 7.06-1.19 11.19-.13.46-.13.46-.81 2.81.98 1.67 1.99 3.34 3 5-.21 6.05-.21 6.05-2.53 8.85-2.84 4.14-2.08 9.34-1.47 14.15 1.06 2.47 2.23 3.91 4 6 2.4 7.2 2.1 15.69-1.13 22.56-2.73 4.66-5.49 8.38-10.86 10.06-3.45.63-5.69.53-8.89-.93-2.12-1.69-2.12-1.69-4.12-3.69-.39.78-.79 1.57-1.19 2.37-2.12 3.08-3.21 3.79-6.81 4.63-.53-.11-.53-.11-3.19-.69l-2.81-.31c-1.19 2.31-1.19 2.31-2 5-3.21 2.14-4.02 2.23-7.69 2.13l-2.45-.06c-.61-.02-1.23-.05-1.86-.07.02.68.04 1.36.07 2.05.14 7.38.25 14.98-3.57 21.51-4.47 2.57-9.59 2.93-14.64 2.08a37 37 0 0 1-6.86-2.64c-.23-3.62-.32-7.2-.31-10.83-.06-2.29-.06-2.29-.69-6.17-2.36-1.66-2.36-1.66-5-2l-3 2c-3.26.28-5.28.43-8.13-1.25-.62-.25-1.23-.5-1.87-.75-2.12 1.48-2.12 1.48-4 4-.22 2.66-.25 4.93-.06 7.56.43 6.73.43 6.73-.95 9.37-3.16 1.7-6.37 1.58-9.87 1.57l-2.14.09c-3.94.01-5.79-.44-8.93-2.87-2.75-3.64-3.15-6.57-3.37-11.05-.04-.8-.08-1.6-.13-2.42-.04-.82-.07-1.65-.11-2.5-.03-.42-.03-.42-.14-2.55l-.3-6.2c-1.09.19-2.18.38-3.3.58-4.37.5-6.04-.25-9.7-2.58-.46-.54-.91-1.07-1.38-1.63-2.34-1.98-4.73-1.73-7.68-2-2.91-.56-4.2-2.07-5.94-4.37-.17-.33-.17-.33-1-2l-1.69 1.48c-2.7 1.78-4.11 1.9-7.31 1.83-.85 0-1.69-.01-2.56-.01-3.77-.46-5.71-1.4-8.11-4.36-.5-.78-1-1.57-1.52-2.38-.51-.78-1.02-1.56-1.54-2.37-3.52-6.07-2.83-13.4-2.27-20.19.89-2.23.89-2.23 2-3.87 2.39-3.74 2.24-5.7 1.99-9.99.01-2.14.01-2.14 1.26-5.45.25-.89.49-1.78.75-2.69-1.82-2-1.82-2-4-4-.94-2.87-.94-2.87-1-6 .53-1.03 1.07-2.06 1.62-3.13.46-.94.91-1.89 1.38-2.87-.98-1.35-1.98-2.68-3-4-.85-4.9-.55-8.14 2.12-12.37.62-.87 1.24-1.74 1.88-2.63l-2-3c-.34-3.91-.23-6.71 2-10l3-2c.03-2.01.06-4.02-.01-6.04.01-2.56.43-3.93 2.01-5.96.86-.43 1.73-.87 2.62-1.31.79-.56 1.57-1.12 2.38-1.69.18-3.44.18-3.44 0-7 .65-1.34 1.31-2.68 2-4-.11-.32-.11-.32-.63-1.94-.12-.68-.25-1.36-.37-2.06 9.85-14.16 37.51-30.73 54.56-24.75"/><path fill="#aea791" d="M74.563 6.25c1.13.25 2.27.5 3.44.75.61-.47 1.23-.95 1.87-1.44 2.72-1.99 4.3-1.9 7.63-1.81.47.01.47.01 2.84.05 2.66.2 2.66.2 4.88.78 1.78.42 1.78.42 3.78-.58 5.16.04 9.03.51 13 4l2-1c5.67-.52 10.38-.73 15 3l1 1c1.89.22 3.79.42 5.68.63 5.57.86 8.11 2.22 11.43 6.71.89 1.66.89 1.66.89 3.66.86-.08 1.73-.16 2.62-.25 4.25.31 6.11 1.56 9.38 4.25 2.57 3.44 3 4.6 3 9 1.66.36 3.33.69 5 1 2.62 2.44 2.98 3.84 3.37 7.44.77 4.37 2.35 5.69 5.63 8.56 1.37 2.74 1.12 4.97 1 8l-1 2c.62.19 1.24.37 1.87.56 2.13 1.44 2.13 1.44 3.5 4.63.63 3.81.63 3.81-.43 7.44-.94 3.37-.94 3.37.43 5.81.27.42.27.42 1.63 2.56.35 4.4.35 7.06-1.19 11.19-.13.46-.13.46-.81 2.81.98 1.67 1.99 3.34 3 5-.21 6.05-.21 6.05-2.53 8.85-2.84 4.14-2.08 9.34-1.47 14.15 1.06 2.47 2.23 3.91 4 6 2.4 7.2 2.1 15.69-1.13 22.56-2.73 4.66-5.49 8.38-10.86 10.06-3.45.63-5.69.53-8.89-.93-2.12-1.69-2.12-1.69-4.12-3.69-.39.78-.79 1.57-1.19 2.37-2.12 3.08-3.21 3.79-6.81 4.63-.53-.11-.53-.11-3.19-.69l-2.81-.31c-1.19 2.31-1.19 2.31-2 5-3.21 2.14-4.02 2.23-7.69 2.13l-2.45-.06c-.61-.02-1.23-.05-1.86-.07.02.68.04 1.36.07 2.05.14 7.38.25 14.98-3.57 21.51-4.47 2.57-9.59 2.93-14.64 2.08a37 37 0 0 1-6.86-2.64c-.23-3.62-.32-7.2-.31-10.83-.06-2.29-.06-2.29-.69-6.17-2.36-1.66-2.36-1.66-5-2l-3 2c-3.26.28-5.28.43-8.13-1.25-.62-.25-1.23-.5-1.87-.75-2.12 1.48-2.12 1.48-4 4-.22 2.66-.25 4.93-.06 7.56.43 6.73.43 6.73-.95 9.37-3.16 1.7-6.37 1.58-9.87 1.57l-2.14.09c-3.94.01-5.79-.44-8.93-2.87-2.75-3.64-3.15-6.57-3.37-11.05-.04-.8-.08-1.6-.13-2.42-.04-.82-.07-1.65-.11-2.5-.03-.42-.03-.42-.14-2.55l-.3-6.2c-1.09.19-2.18.38-3.3.58-4.37.5-6.04-.25-9.7-2.58-.46-.54-.91-1.07-1.38-1.63-2.34-1.98-4.73-1.73-7.68-2-2.91-.56-4.2-2.07-5.94-4.37-.17-.33-.17-.33-1-2l-1.69 1.48c-2.7 1.78-4.11 1.9-7.31 1.83-.85 0-1.69-.01-2.56-.01-3.77-.46-5.71-1.4-8.11-4.36-.5-.78-1-1.57-1.52-2.38-.51-.78-1.02-1.56-1.54-2.37-3.52-6.07-2.83-13.4-2.27-20.19.89-2.23.89-2.23 2-3.87 2.39-3.74 2.24-5.7 1.99-9.99.01-2.14.01-2.14 1.26-5.45.25-.89.49-1.78.75-2.69-1.82-2-1.82-2-4-4-.94-2.87-.94-2.87-1-6 .53-1.03 1.07-2.06 1.62-3.13.46-.94.91-1.89 1.38-2.87-.98-1.35-1.98-2.68-3-4-.85-4.9-.55-8.14 2.12-12.37.62-.87 1.24-1.74 1.88-2.63l-2-3c-.34-3.91-.23-6.71 2-10l3-2c.03-2.01.06-4.02-.01-6.04.01-2.56.43-3.93 2.01-5.96.86-.43 1.73-.87 2.62-1.31.79-.56 1.57-1.12 2.38-1.69.18-3.44.18-3.44 0-7 .65-1.34 1.31-2.68 2-4-.11-.32-.11-.32-.63-1.94-.12-.68-.25-1.36-.37-2.06 9.85-14.16 37.51-30.73 54.56-24.75m2.44 3.75c-2.88-.25-2.88-.25-5-1 .67 3.81 1.73 7.32 3.03 10.96.4 1.13.8 2.26 1.21 3.43l2.52 7.08c.4 1.14.8 2.27 1.21 3.43.36 1.03.73 2.05 1.1 3.11.94 3.02 1.65 5.84 1.93 8.99-2.14 1.19-2.14 1.19-5 2-1.64.95-3.27 1.94-4.88 2.94-6.22 3.69-12.66 6.82-19.18 9.93-1.03.49-2.05.98-3.11 1.49-7.4 3.49-7.4 3.49-10.83 4.64-.24-.68-.48-1.35-.73-2.05-1.55-3.6-3.53-6.87-5.59-10.2-3.08-5.04-6.01-10.09-8.61-15.41-.18-.22-.18-.22-1.07-1.34-.5.16-.5.16-3 1-.45 6.11-.45 6.11 1 9-.58.08-1.16.16-1.75.25-3.11 1.04-4.38 2.04-6.25 4.75-.11 3.52.41 6.83 2 10l-2.38.31c-2.62.69-2.62.69-4.62 3.69.25 4.59.85 7.58 4 11-.62.29-1.24.58-1.88.87C9.003 80 9.003 80 7.003 82c-.51 3.37-.47 6.63 0 10 2 2.63 2 2.63 4 4-.25.16-.25.16-1.5 1-1.97 2.62-1.97 4.88-1.88 8.09.38 1.91.38 1.91 2.5 3.97l1.88 1.94c-.82 3.44-.82 3.44-2 7 .06 2.69.06 2.69 1 5 2.56 2.31 2.56 2.31 5 4l-2 3c-.48 2.86-.29 5.06 0 8 1.56 1 1.56 1 4 1l3.75.06 3.25-.06c-.19.56-.37 1.11-.56 1.69-.54 2.85-.45 4.58.56 7.31 2.5.49 2.5.49 5.56.31 1.01-.04 2.02-.09 3.07-.13.78-.06 1.56-.12 2.37-.18v9l7 1v-2l3 1c.71 1.65 1.38 3.31 2 5 2 2 2 2 4.87 2.25 2.99-.24 4.68-.56 7.13-2.25v-2h2c.25 1.13.49 2.27.75 3.44.41 1.17.82 2.35 1.25 3.56 2.81 1.19 2.81 1.19 6 1 2.87-1.94 2.87-1.94 5-4 .12.66.25 1.32.37 2 .11.33.11.33.63 2h2l1 3c7.14-.12 7.14-.12 10-3.06l1-1.94c.39.66.78 1.32 1.18 2 1.82 2 1.82 2 4.32 2.5.82-.16 1.65-.33 2.5-.5l1.37-2.13c.54-.61 1.08-1.23 1.63-1.87 3.68.63 3.68.63 7 2v2c2.25.94 2.25.94 5 1 2.58-2.58 3.84-4.54 5-8 .37.5.74.99 1.12 1.5 1.88 1.5 1.88 1.5 4.82 1.94 3.06-.44 3.06-.44 5.06-2.63.66-.6 1.32-1.19 2-1.81 3 1.31 3 1.31 6 3 2.24-.24 3.4-.4 5-2q.06-3 0-6c3 1 3 1 4 3 5.32.34 5.32.34 8-1 .07-1.33.08-2.67.06-4 .19-2.21.19-2.21.94-4 2.36-.67 4.5-.69 6.95-.75.68-.08 1.35-.16 2.05-.25 1.18-2.25 1.18-2.25 1-5-.94-2.81-.94-2.81-2-5 .36-.05.36-.05 2.18-.31 3.33-.82 5.21-1.43 7.82-3.69.69-2.23 1.08-4.43 1.46-6.73.54-2.27.54-2.27 2.72-5.33 2-3.24 1.95-3.53 1.26-7-.08-.65-.08-.65-.44-3.94 2.44-2.63 2.44-2.63 5-5 .56-2.94.56-2.94 0-6-.72-.99-1.45-1.98-2.19-3-.6-.99-1.2-1.98-1.81-3 1.25-2.94 1.25-2.94 3-6 .39-3.82.52-6.07-1.38-9.44-1.62-1.56-1.62-1.56-3.62-1.56.68-1.03 1.36-2.06 2.06-3.13 1.54-2.72 1.94-3.83 2-7.06-1.31-3.47-3.13-4.65-6.06-6.81l1-2c.37-2.81.37-2.81 0-6-2.38-2.87-2.38-2.87-5-5h-2c.03-.61.07-1.23.1-1.86.02-.41.02-.41.08-2.45.04-.8.07-1.6.11-2.43-.29-2.26-.29-2.26-1.64-4.04-1.65-1.22-1.65-1.22-4.28-1.47-.78-.25-1.56-.5-2.37-.75-.07-.54-.07-.54-.44-3.25-.56-3.75-.56-3.75-3.25-6.69-3.31-2.06-3.31-2.06-6.5-2l-2.81-.06c-1.04-1.98-2.03-3.98-3-6-4.74-3.51-8.16-4.27-13.95-4.65-2.05-.35-2.05-.35-4.49-2.41-3.46-2.62-6.03-2.34-10.26-2.28-2.3.34-2.3.34-5.3 2.34-2.07-1.81-2.07-1.81-4-4-2.74-1.37-4.97-1.13-8-1l-2 1v2c-.64-.5-1.28-.99-1.94-1.5-7.04-3.45-11.9-1.84-18.06 2.5"/><path fill="#153135" d="M77 8v3c-.83-.33-.83-.33-5-2 .33.91.67 1.82 1.01 2.75 1.24 3.39 2.47 6.77 3.69 10.17.53 1.46 1.06 2.92 1.6 4.38.77 2.11 1.53 4.22 2.29 6.33.24.65.48 1.3.73 1.96C82.71 38.51 83.51 41.85 83 46c-2.38 1.95-4.38 3.26-7.06 4.69-.74.41-1.49.83-2.25 1.25-8.48 4.66-17.22 8.87-25.96 13.01-.84.39-1.68.79-2.55 1.2C43 67 43 67 40 67c-1.38-1.72-1.38-1.72-2.78-4.13-.51-.87-1.02-1.74-1.55-2.64-.53-.92-1.06-1.84-1.61-2.79-.52-.9-1.05-1.79-1.59-2.72a454 454 0 0 1-3.06-5.28c-.89-1.53-1.78-3.06-2.68-4.58C24 40.22 24 40.22 24 38c-.33.16-.33.16-2 1 .02 1.96.02 1.96.25 4.38.07 2.48.07 2.48-.25 4.62-2.94 1.63-2.94 1.63-6 3-1.07 3.92-1.39 7.14 0 11h-2c-2.33-3.49-2.33-4.9-2-9 .69-2.19.69-2.19 2-4 .87-.43 1.73-.87 2.62-1.31.79-.56 1.57-1.12 2.38-1.69.19-3.44.19-3.44 0-7 .65-1.34 1.32-2.68 2-4-.21-.64-.41-1.28-.62-1.94-.13-.68-.25-1.36-.38-2.06C30.04 16.58 60.28-2.11 77 8"/><path fill="#403f3e" d="M87.5 3.75c.47.01.47.01 2.84.05C93 4 93 4 95.22 4.58 97 5 97 5 99 4c5.16.04 9.04.51 13 4l2-1c5.67-.52 10.38-.73 15 3l1 1c1.89.22 3.79.42 5.69.63 5.56.86 8.1 2.22 11.42 6.71C148 20 148 20 148 22c.43-.04.43-.04 2.62-.25 4.25.31 6.11 1.56 9.38 4.25 2.58 3.44 3 4.6 3 9 1.66.36 3.33.69 5 1 2.63 2.44 2.98 3.84 3.38 7.44.76 4.37 2.34 5.69 5.62 8.56 1.37 2.74 1.13 4.97 1 8-.16.33-.16.33-1 2 .62.19 1.24.37 1.88.56C181 64 181 64 182.38 67.19c.62 3.81.62 3.81-.44 7.44-.94 3.37-.94 3.37.44 5.81.53.84 1.07 1.69 1.62 2.56.35 4.4.35 7.06-1.19 11.19-.13.46-.13.46-.81 2.81.99 1.67 1.99 3.34 3 5-.21 6.05-.21 6.05-2.53 8.85-2.83 4.14-2.08 9.34-1.47 14.15 1.06 2.47 2.24 3.91 4 6 2.4 7.2 2.1 15.69-1.12 22.56-2.74 4.66-5.49 8.38-10.86 10.06-3.46.63-5.7.53-8.9-.93C162 161 162 161 160 159c-.39.78-.78 1.57-1.19 2.37-2.12 3.08-3.21 3.79-6.81 4.63-1.05-.21-2.1-.41-3.19-.63-.93-.12-1.85-.24-2.81-.37-1.38 1.94-1.38 1.94-2 4-1-2-1-2-.56-4.69.51-.76 1.03-1.52 1.56-2.31 3.94.31 3.94.31 6.03.8 1.97.2 1.97.2 4.97-1.8.23-.99.45-1.98.69-3 1.31-3 1.31-3 3.14-3.73 1.42-.3 2.86-.55 4.29-.75C166 153 166 153 168 150c.21-3.41.08-5.75-1-9 2.38-1.63 2.38-1.63 5-3 1.6-1.6 1.2-3.47 1.31-5.69.32-3.81.6-5.17 2.81-8.44 2.09-3.19 2.02-3.45 1.32-6.93-.07-.65-.07-.65-.44-3.94 2.44-2.62 2.44-2.62 5-5 .56-2.94.56-2.94 0-6-.72-.99-1.44-1.98-2.19-3-.6-.99-1.19-1.98-1.81-3 1.25-2.94 1.25-2.94 3-6 .44-3.63.44-3.63 0-7-.7-.7-1.4-1.4-2.12-2.13-.62-.61-1.24-1.23-1.88-1.87.69-2.37.69-2.37 2-5 .88-3.06.88-3.06 1-6-1.81-2.25-1.81-2.25-4-4l-2-2c.16-.33.16-.33 1-2 .31-2.87.31-2.87 0-6-1.87-2.3-3.36-3.68-6-5-.12-1.81-.18-3.62-.19-5.44-.2-3.04-.2-3.04-.81-5.56-3.44-1.25-3.44-1.25-7-2-1.12-3.37-1.12-3.37-2-7-2.19-2.44-2.19-2.44-5-4-.61.03-.61.03-3.69.19L147 25c-1.19-3.37-1.19-3.37-2-7-3.08-2.15-6.27-2.42-9.94-2.87-5.75-.86-5.75-.86-8.56-3.26-4.17-3.12-9.46-2.54-14.5-1.87l-1 2-1.88-1.94c-2.13-2.07-3.1-3.01-6.07-3.16-.35.01-.35.01-2.17.04L97 7v2l-1.94-1c-5.25-1.71-10.12-1.95-15.12.5-.32.25-.32.25-1.94 1.5 0-3 0-3 1.66-4.67 2.84-1.61 4.59-1.67 7.84-1.58"/><path fill="#faf9f4" d="M61 174c1.9-.08 3.79-.14 5.69-.19 1.05-.03 2.11-.07 3.2-.1 3.5.33 5.23 1.34 8.11 3.29l3 1c.31 2.74.42 5.2.38 7.94l.03 2.25c-.01 2.15-.01 2.15-.41 5.81-3.46 2.31-4.92 2.27-9 2.25-1.05.01-2.1.01-3.19.02C66 196 66 196 63 194c-2-4.53-2.22-8.47-2.12-13.38.01-1.24.03-2.49.05-3.77.02-.94.05-1.88.07-2.85"/><path fill="#faf8f4" d="M128 173h1c.11 2.73.19 5.46.25 8.19.02.38.02.38.1 2.33.07 3.84-.12 6.04-1.96 9.5-3.13 2.59-4.93 2.59-8.95 2.48-.57-.01-.57-.01-3.44-.03-3-.47-3-.47-4.86-1.53-2.81-4.79-1.96-11.63-1.14-16.94 4.59-3.98 9.84-3.25 15.74-3.01.75 0 1.49.01 2.26.01z"/><path fill="#f7f5f0" d="M177 126c3.45 1.15 4.51 2.41 6.2 5.59 2.39 7.18 1.81 15.2-1.32 22.03-2.34 3.99-4.52 6.55-8.88 8.38-4.29-.15-6.42-.62-10-3v-3c1.66-1.01 3.33-2.01 5-3 2.01-2.68 2-3.97 1.81-7.38.22-4.12 1.24-5.05 4.01-7.94 1.91-2.73 1.89-5.57 2.04-8.82C176 127 176 127 177 126"/><path fill="#4c4c4b" d="M62 93c2.76 2.18 4.44 3.87 6 7 .41 4.65-.19 7.25-3 11-4.02 2.68-7.27 2.69-12 2-3.5-2.11-4.71-3.12-6-7-.39-4.2-.46-6.3 1.88-9.88C52.72 92.28 56.77 92.17 62 93"/><path fill="#152219" d="M143.55 69.055c2.82 1.74 5.11 3.6 7.45 5.95-.06 3.56-.06 3.56-1 7-2.13 1.18-2.13 1.18-5 1-1.71-1.01-3.43-2.01-5.11-3.07-3.43-1.7-6.1-1.36-9.89-.93-1.7.94-3.37 1.94-5 3-2.69.31-2.69.31-5 0l-2-2c.33-2.62.82-4.65 2-7h2v-2c5.92-4.41 14.83-4.73 21.55-1.95"/><path fill="#142319" d="M56.25 66.688c1.3-.04 2.61-.07 3.95-.11 5.18.58 8.12 2.74 11.74 6.36 1.06 2.06 1.06 2.06.81 4.75-.75 2.31-.75 2.31-1.75 3.31-3 .33-4.46.44-6.86-1.49-2.58-1.82-4.01-1.91-7.14-1.88l-2.56-.03c-2.89.48-4.17 1.61-6.44 3.4-3.19.25-3.19.25-6 0-1-1-1-1-1.44-4.25.46-3.92.51-4.29 3.31-6.62 4.54-3.08 6.88-3.34 12.38-3.44"/><path fill="#c7c2ab" d="M173 134c.16.5.16.5 1 3-1.75 2.19-1.75 2.19-4 4h-3l2 3c.44 2.88.44 2.88 0 6-2.12 2.88-2.12 2.88-5 5-3.31.31-3.31.31-6 0-.08.93-.16 1.86-.25 2.81-.75 3.19-.75 3.19-2.37 5.13-2.38 1.06-2.38 1.06-6 .37-1.12-.1-2.23-.2-3.38-.31-1.25 2.75-1.25 2.75-2 6-1.17 1.69-1.17 1.69-3 3-2.81.29-2.81.29-6 .19-.53-.02-.53-.02-3.19-.08-.93-.04-1.85-.07-2.81-.11h-3c.33-.16.33-.16 2-1 .41-2.07.41-2.07.62-4.56.08-.83.15-1.66.23-2.51.05-.63.1-1.27.15-1.93 3 0 3 0 5.44 1.06 2.56.94 2.56.94 4.81.94.58-.33 1.16-.66 1.75-1 .75-3.06.75-3.06 1-6 2 .38 2 .38 4 1v2c1.32-.16 1.32-.16 8-1v-9h10c-.35-1.57-.7-3.13-1.06-4.75-.31-2.77-.31-2.77.06-5.25 2.22-1.73 4.22-2.45 6.9-3.28C172 136 172 136 173 134"/><path fill="#f6f4f0" d="M10 126c2.75.06 2.75.06 5 1-.33.52-.66 1.03-1 1.56-1.39 3.39-1.45 5.82-1 9.44.78.6 1.57 1.2 2.38 1.81 3.53 2.95 3.48 5.42 3.97 9.85.84 3.02 1.99 3.77 4.65 5.34l3 1c-1 3-1 3-3 4-6.59.78-6.59.78-9.98-1.09C9.99 155.68 7 152.16 6 147c-.59-6.22-1.15-12.7 1.69-18.44.76-.84 1.52-1.69 2.31-2.56"/><path fill="#61625f" d="M136 92c2.93 1.81 5.44 3.87 7 7 .7 7.13.7 7.13-2.38 10.94-4.45 3.5-7.05 3.33-12.62 3.06l-1-2h3c-.12-2.44-.12-2.44-1-5-3.06-.81-3.06-.81-6-1-.31-3.19-.31-3.19 0-7 3.98-4.82 6.72-6.73 13-6"/><path fill="#403d36" d="M178 122c.16.5.16.5 1 3l3 1c4.75 6.92 5.06 13.78 4 22-2.02 6.49-5.18 11.46-11 15-3.95 1.24-7.02 1.45-10.88-.31C162 161 162 161 160 159c-.39.78-.78 1.57-1.19 2.38-2.12 3.07-3.21 3.78-6.81 4.62-1.05-.21-2.1-.41-3.19-.62-.46-.07-.46-.07-2.81-.38-1.38 1.94-1.38 1.94-2 4-1-2-1-2-.56-4.69.51-.76 1.03-1.52 1.56-2.31 3.94.31 3.94.31 6.03.8 1.97.2 1.97.2 4.97-1.8.23-.99.45-1.98.69-3 1.31-3 1.31-3 3.14-3.73 1.42-.3 2.86-.55 4.29-.75C166 153 166 153 168 150c.21-3.41.08-5.75-1-9 2.38-1.62 2.38-1.62 5-3 1.61-1.61 1.2-3.53 1.31-5.75.39-4.55 1.32-6.99 4.69-10.25m-1 4c-1.53 1.53-1.15 3.06-1.25 5.19-.33 3.54-.84 5.37-3.31 7.93-3.06 3.61-2.61 5.29-2.44 9.88-1.38 3.11-2.15 4.6-5.25 6.06-.29.16-.29.16-1.75.94-.06 2-.06 2 1 4 2.85 1.71 4.67 2.01 8 1.88 4.28-1.25 6.68-2.93 9.2-6.65 3.55-6.71 3.84-13.8 2.8-21.23-1.22-3.08-2.61-5.67-5-8z"/><path fill="#4d4b4a" d="M165 35c3.21 1.24 4.01 2.02 6 5 .1 1.11.21 2.23.31 3.38.84 4.39 2.39 5.73 5.69 8.62 1.37 2.74 1.13 4.97 1 8l-1 2c.62.19 1.24.37 1.88.56C181 64 181 64 182.38 67.19c.62 3.81.62 3.81-.44 7.43-.94 3.38-.94 3.38.44 5.82.26.42.26.42 1.62 2.56.35 4.4.35 7.06-1.19 11.19-.27.93-.53 1.85-.81 2.81.99 1.67 1.99 3.34 3 5-.13 3.64-.24 6.06-2.56 8.94-1.93 2.77-1.6 4.77-1.35 8.06-.11 2.42-.9 3.92-2.09 6l-.18-1.86c-.09-.81-.17-1.62-.26-2.45-.08-.8-.16-1.6-.24-2.43C178 116 178 116 177 113c.8-.76 1.61-1.53 2.44-2.31 2.56-2.69 2.56-2.69 3.12-5.63C182 102 182 102 179.81 99c-.6-.99-1.19-1.98-1.81-3 1.25-2.94 1.25-2.94 3-6 .44-3.62.44-3.62 0-7l-2.12-2.12L177 79c.69-2.38.69-2.38 2-5 .88-3.06.88-3.06 1-6-1.81-2.25-1.81-2.25-4-4l-2-2 1-2c.31-2.88.31-2.88 0-6-1.87-2.3-3.36-3.68-6-5-.32-2.81-.38-5.6-.46-8.43C168 38 168 38 165.96 36.65c-.32-.11-.32-.11-1.96-.65z"/><path fill="#f6dbb3" d="M40 119c8.9-.78 8.9-.78 13.19 2.25C55 124 55 124 55.06 126.06c-1.54 2.81-2.33 4.12-5.06 5.94-4.29.46-9.07.97-13-1-.75-3.38-.75-3.38-1-7l2-3h2z"/><path fill="#494847" d="m13 60 1 2 2 1c-.4.09-.4.09-2.44.56C11 65 11 65 10 68.38c0 3.92.43 4.84 3 7.62v2c-.82.5-1.65.99-2.5 1.5-2.87 2.87-2.93 3.6-3.06 7.5.16 3.58.33 4.7 2.56 7.62.66.46 1.32.91 2 1.38-.25.16-.25.16-1.5 1-1.96 2.62-1.97 4.88-1.88 8.09.38 1.91.38 1.91 2.5 3.97L13 111c-.81 3.44-.81 3.44-2 7 .06 2.69.06 2.69 1 5 2.56 2.31 2.56 2.31 5 4-.33.16-.33.16-2 1-2.62-.94-2.62-.94-5-2-.15.39-.15.39-.94 2.38C8 131 8 131 7 133c-.23 1.87-.41 3.75-.56 5.62-.09 1.01-.17 2.01-.26 3.04L6 144H5c-1.77-10.61-1.77-10.61.94-14.62 2.39-3.92 2.31-5.83 2.05-10.24C8 117 8 117 9.25 113.69c.25-.89.5-1.78.75-2.69-1.81-2-1.81-2-4-4-.94-2.88-.94-2.88-1-6 .54-1.03 1.07-2.06 1.62-3.12.46-.95.91-1.9 1.38-2.88-.98-1.35-1.98-2.68-3-4-.85-4.9-.54-8.14 2.12-12.38.62-.86 1.24-1.73 1.88-2.62l-2-3c-.33-3.91-.26-6.73 2-10 2.12-1.75 2.12-1.75 4-3"/><path fill="#f5daad" d="M148 120c2.69 1.69 2.69 1.69 4 4 0 3.07-.55 4.46-2.5 6.81-3.8 1.81-7.37 1.88-11.5 1.19-2.6-1.82-3.6-3.24-5.06-6 .06-2 .06-2 1.87-4.25 4.43-2.43 8.24-2.57 13.19-1.75"/><path fill="#35322a" d="M14 128c1.18 2.36.93 3.41.69 6-.05 2.2-.05 2.2.31 4l3 .88 3 1.12c.26 2.57.05 5-.11 7.58.11 2.42.11 2.42 2.49 4.98 1.52.84 3.06 1.66 4.62 2.44.31 2.44.31 2.44 0 5-3.23 2.15-4.21 2.27-7.94 2.25-.85.01-1.71.01-2.59.02-3.79-.41-5.72-1.35-8.14-4.33-.5-.78-1-1.57-1.52-2.38-.51-.78-1.02-1.56-1.54-2.37-2.17-3.74-2.38-6.64-2.33-10.88.01-.99.02-1.99.02-3.01.02-.76.03-1.52.04-2.3h1c.31 1.49.57 3 .81 4.5 1.21 6.29 3.13 11.21 7.44 16 3.93 2.14 6.3 2 10.75 1.5 2-1.5 2-1.5 3-3-.37-.03-.37-.03-2.25-.19-3.75-1.1-4.76-2.47-6.75-5.81-.29-1.97-.29-1.97-.44-4.06-.69-4.84-1.92-5.05-5.56-7.94-.54-4.42-.49-6.27 2-10"/><path fill="#d6ccb5" d="m15 141 3 1c.68 2.51.95 4.98 1.28 7.55.9 3.07 2 3.86 4.72 5.45l3 1c-1 3-1 3-3 4-6.68.79-6.68.79-10.05-1.23-2.98-2.49-4.7-4.02-5.95-7.77l2.94.06L14 150c.89-2.98.99-5.9 1-9"/><path fill="#d3cbb1" d="M173 139c1 3.31 1.1 6.3 1.06 9.75-.01.98-.02 1.97-.02 2.98-.02.75-.03 1.5-.04 2.27h2c1.62 2 1.62 2 3 4-3.46 2.78-5.17 4.03-9.69 3.88C166 161 166 161 163 159v-3c1.66-1.01 3.33-2.01 5-3 2.03-2.71 2-4.1 1.94-7.56.06-3.44.06-3.44 1.56-5.38.5-.35.99-.7 1.5-1.06"/><path fill="#d3ccb5" d="M128 173h1v8h-19v11h-1c-.39-5.07-.6-9.94 0-15 4.59-3.98 9.84-3.25 15.74-3.01.75 0 1.49.01 2.26.01z"/><path fill="#aeaca9" d="M148 24c5.4-.36 5.4-.36 7.88 1.12 1.61 2.69 1.31 4.8 1.12 7.88 0 4 0 4 1 5.81 1.41 3.09 1.13 5.85 1 9.19h-1c-.23-1.13-.45-2.27-.69-3.44-.43-1.17-.86-2.35-1.31-3.56-1.99-.37-3.99-.71-6-1-.13-.51-.13-.51-.81-3.06-.39-.97-.79-1.94-1.19-2.94-3.04-.57-5.94-.34-9 0 1.63-1.96 2.46-2.92 5.04-3.29 1.99.09 3.97.19 5.96.29v-5z"/><path fill="#4a4744" d="M129 171h2c1.24 4 1.02 7.8.75 11.94-.07 1.18-.13 2.37-.2 3.59-.59 3.71-1.61 6.26-3.55 9.47-5.35 3.15-12.1 2.06-18 1l-3-2c-.29-3.26-.29-3.26-.19-7.12.03-1.29.06-2.57.08-3.89.04-.99.07-1.97.11-2.99h1v11h2v2c2.44.11 4.87.19 7.31.25.35.02.35.02 2.09.1 3.04.06 5.08.03 7.57-1.79 1.57-3.9 1.31-7.59 1.15-11.75-.07-2.94-.11-5.87-.12-8.81z"/><path fill="#0c0b0a" d="m140 98 3 1c.41 3.07.61 5.04 0 8-2.18 2.69-3.91 4.46-7 6-2.72.24-5.26.13-8 0l-1-2h3c.36-1.66.69-3.33 1-5 1.71-2.3 2.92-2.97 5.62-4 .79-.33 1.57-.66 2.38-1z"/><path fill="#f2f0ed" d="M156 27c1.94.56 1.94.56 4 2 .14 1.18.29 2.35.44 3.56.18 1.14.37 2.27.56 3.44 2.38.75 2.38.75 5 1 2 1.25 2 1.25 3 3-1.31 2.69-1.31 2.69-3 5l-1-2h-2c-1 2-1 2-1 5l-3-1c-1.12-3.38-1.12-3.38-2-7l-1-3 1-2-2-1c.38-2.44.38-2.44 1-5z"/><path fill="#585149" d="M26 154c2.88-.44 2.88-.44 6 0 1.31 3.44 1.31 3.44 2 7 1 1 1 1 4.44 1.12C42 162 42 162 44 161c.23.47.23.47 1.38 2.88C47 167 47 167 49 169c2.61-.19 5.11-.65 7.69-1.1 2.31.1 2.31.1 3.65 1.53.99 3.83.61 7.41.28 11.32-.02.4-.02.4-.17 2.4q-.21 2.925-.45 5.85h-1c-.16-2.97-.16-2.97-1-18l-7 1c-3.05-1.17-5.25-2.11-7.38-4.62-2.34-1.99-4.73-1.74-7.69-2-2.89-.57-4.15-2.12-5.93-4.38l-2-2v-4z"/><path fill="#d0c8af" d="M61 174c11.98-.39 11.98-.39 17 3l3 1v4l-19-2v8h-1z"/></svg>